# MagicaVoxel @ Ephtracy

# group
o 

# material
mtllib snow1.mtl
usemtl palette

# normals
vn -1 0 0
vn 1 0 0
vn 0 0 1
vn 0 0 -1
vn 0 -1 0
vn 0 1 0

# texcoords
vt 0.306641 0.5
vt 0.701172 0.5
vt 0.958984 0.5

# verts
v 0 0.1 -3.3
v 0 0.1 -6
v 0 1 -3.3
v 0 1 -6
v 0.2 0.1 -3.4
v 0.2 0.1 -3.5
v 0.2 0.2 -3.3
v 0.2 0.2 -3.4
v 0.2 0.2 -3.5
v 0.2 0.6 -3.3
v 0.2 0.6 -3.4
v 0.3 0.1 -3.3
v 0.3 0.1 -3.4
v 0.3 0.2 -3.3
v 0.3 0.2 -3.4
v 0.3 0.6 -3.3
v 0.3 0.6 -3.4
v 0.3 1 -3.3
v 0.3 1 -3.4
v 0.7 0.4 -3.2
v 0.7 0.4 -3.3
v 0.7 0.5 -3.2
v 0.7 0.5 -3.3
v 0.8 0.3 -3.2
v 0.8 0.3 -3.3
v 0.8 0.4 -3.2
v 0.8 0.4 -3.3
v 0.9 0.5 -3.2
v 0.9 0.5 -3.3
v 0.9 0.6 -3.2
v 0.9 0.6 -3.3
v 1 0.2 -3.2
v 1 0.2 -3.3
v 1 0.3 -3.2
v 1 0.3 -3.3
v 1 0.6 -3.2
v 1 0.6 -3.3
v 1 0.7 -3.2
v 1 0.7 -3.3
v 1.1 0.1 -3.3
v 1.1 0.1 -3.4
v 1.1 0.2 -3.3
v 1.1 0.3 -3.3
v 1.1 0.5 -3.3
v 1.1 0.5 -3.4
v 1.1 0.7 -3.2
v 1.1 0.7 -3.3
v 1.1 0.8 -3.2
v 1.1 0.8 -3.3
v 1.2 0.1 -3.2
v 1.2 0.1 -3.3
v 1.2 0.2 -3.2
v 1.2 0.2 -3.3
v 1.2 0.8 -3.2
v 1.2 0.8 -3.3
v 1.2 0.9 -3.2
v 1.2 0.9 -3.3
v 1.3 0.2 -3.3
v 1.3 0.2 -3.4
v 1.3 0.5 -3.3
v 1.3 0.5 -3.4
v 1.3 0.8 -3.1
v 1.3 0.8 -3.2
v 1.3 0.9 -3.1
v 1.3 0.9 -3.2
v 1.4 0.9 -3.1
v 1.4 0.9 -3.2
v 1.4 0.9 -3.3
v 1.4 1 -3.1
v 1.4 1 -3.3
v 1.5 0.1 -3.3
v 1.5 0.1 -3.4
v 1.5 0.9 -3.3
v 1.5 0.9 -3.4
v 1.9 0.1 -3.3
v 1.9 0.1 -3.5
v 1.9 1 -3.3
v 1.9 1 -3.5
v 2.1 0.1 -3.3
v 2.1 0.1 -3.4
v 2.1 1 -3.3
v 2.1 1 -3.4
v 2.5 0.3 -3.3
v 2.5 0.3 -3.4
v 2.5 0.9 -3.3
v 2.5 0.9 -3.4
v 2.6 0.2 -3.3
v 2.6 0.2 -3.4
v 2.6 0.3 -3.3
v 2.6 0.3 -3.4
v 2.6 0.9 -3.3
v 2.6 0.9 -3.4
v 2.6 1 -3.3
v 2.6 1 -3.4
v 2.7 0.1 -3.3
v 2.7 0.1 -3.4
v 2.7 0.2 -3.3
v 2.7 0.2 -3.4
v 3 0.2 -3.3
v 3 0.2 -3.4
v 3 0.4 -3.3
v 3 0.4 -3.4
v 3 0.5 -3.4
v 3 0.5 -3.5
v 3 0.9 -3.4
v 3 0.9 -3.5
v 3.1 0.1 -3.3
v 3.1 0.1 -3.4
v 3.1 0.2 -3.3
v 3.1 0.2 -3.4
v 3.1 0.9 -3.4
v 3.1 0.9 -3.5
v 3.1 1 -3.4
v 3.1 1 -3.5
v 3.6 0.2 -3.3
v 3.6 0.2 -3.4
v 3.6 0.3 -3.3
v 3.6 0.3 -3.4
v 3.6 0.3 -3.5
v 3.6 0.8 -3.4
v 3.6 0.8 -3.5
v 3.7 0.8 -3.4
v 3.7 0.8 -3.5
v 3.7 1 -3.4
v 3.7 1 -3.5
v 0.1 0.1 -3.3
v 0.1 0.1 -3.5
v 0.1 0.2 -3.4
v 0.1 0.2 -3.5
v 0.1 0.6 -3.3
v 0.1 0.6 -3.4
v 0.2 0.6 -3.3
v 0.2 0.6 -3.4
v 0.2 1 -3.3
v 0.2 1 -3.4
v 0.5 0.1 -3.3
v 0.5 0.1 -3.4
v 0.5 0.2 -3.3
v 0.5 0.2 -3.4
v 0.6 0.2 -3.3
v 0.6 0.2 -3.4
v 0.6 0.3 -3.3
v 0.6 0.3 -3.4
v 0.7 0.3 -3.3
v 0.7 0.3 -3.4
v 0.7 0.4 -3.3
v 0.7 0.4 -3.4
v 0.8 0.4 -3.2
v 0.8 0.4 -3.3
v 0.8 0.4 -3.4
v 0.8 0.5 -3.2
v 0.8 0.5 -3.3
v 0.8 0.5 -3.4
v 1 0.3 -3.2
v 1 0.3 -3.3
v 1 0.4 -3.2
v 1 0.4 -3.3
v 1 0.5 -3.2
v 1 0.5 -3.3
v 1 0.6 -3.2
v 1 0.6 -3.3
v 1.1 0.6 -3.2
v 1.1 0.6 -3.3
v 1.1 0.7 -3.2
v 1.1 0.7 -3.3
v 1.2 0.2 -3.2
v 1.2 0.2 -3.3
v 1.2 0.2 -3.4
v 1.2 0.3 -3.2
v 1.2 0.3 -3.3
v 1.2 0.5 -3.3
v 1.2 0.5 -3.4
v 1.2 0.7 -3.2
v 1.2 0.7 -3.3
v 1.2 0.8 -3.2
v 1.2 0.8 -3.3
v 1.3 0.8 -3.2
v 1.3 0.8 -3.3
v 1.3 0.9 -3.2
v 1.3 0.9 -3.3
v 1.4 0.1 -3.2
v 1.4 0.1 -3.3
v 1.4 0.1 -3.4
v 1.4 0.2 -3.2
v 1.4 0.2 -3.3
v 1.4 0.8 -3.1
v 1.4 0.8 -3.2
v 1.4 0.9 -3.1
v 1.4 0.9 -3.2
v 1.4 0.9 -3.3
v 1.4 0.9 -3.4
v 1.5 0.9 -3.1
v 1.5 0.9 -3.3
v 1.5 1 -3.1
v 1.5 1 -3.3
v 1.8 0.1 -3.3
v 1.8 0.1 -3.5
v 1.8 1 -3.3
v 1.8 1 -3.5
v 2 0.1 -3.3
v 2 0.1 -3.4
v 2 1 -3.3
v 2 1 -3.4
v 2.3 0.1 -3.3
v 2.3 0.1 -3.4
v 2.3 1 -3.3
v 2.3 1 -3.4
v 2.9 0.1 -3.3
v 2.9 0.1 -3.4
v 2.9 0.5 -3.4
v 2.9 0.5 -3.5
v 2.9 1 -3.3
v 2.9 1 -3.5
v 3.1 0.2 -3.3
v 3.1 0.2 -3.4
v 3.1 0.4 -3.3
v 3.1 0.4 -3.4
v 3.5 0.1 -3.3
v 3.5 0.1 -3.4
v 3.5 0.2 -3.3
v 3.5 0.2 -3.4
v 3.5 0.3 -3.4
v 3.5 0.3 -3.5
v 3.5 0.8 -3.4
v 3.5 0.8 -3.5
v 3.6 0.8 -3.4
v 3.6 0.8 -3.5
v 3.6 1 -3.4
v 3.6 1 -3.5
v 3.7 0.2 -3.3
v 3.7 0.2 -3.4
v 3.7 0.3 -3.3
v 3.7 0.3 -3.4
v 3.9 0.1 -3.4
v 3.9 0.1 -3.5
v 3.9 0.4 -3.4
v 3.9 0.4 -3.5
v 3.9 0.5 -3.5
v 3.9 0.5 -3.6
v 3.9 0.8 -3.4
v 3.9 0.8 -3.5
v 3.9 1 -3.4
v 3.9 1 -3.6
v 4 0.1 -3.5
v 4 0.1 -6
v 4 0.5 -3.5
v 4 0.5 -3.6
v 4 1 -3.6
v 4 1 -6
v 1.3 0.8 -3.1
v 1.3 0.9 -3.1
v 1.4 0.8 -3.1
v 1.4 0.9 -3.1
v 1.4 1 -3.1
v 1.5 0.9 -3.1
v 1.5 1 -3.1
v 0.7 0.4 -3.2
v 0.7 0.5 -3.2
v 0.8 0.3 -3.2
v 0.8 0.4 -3.2
v 0.8 0.5 -3.2
v 0.9 0.5 -3.2
v 0.9 0.6 -3.2
v 1 0.2 -3.2
v 1 0.3 -3.2
v 1 0.4 -3.2
v 1 0.5 -3.2
v 1 0.6 -3.2
v 1 0.7 -3.2
v 1.1 0.6 -3.2
v 1.1 0.7 -3.2
v 1.1 0.8 -3.2
v 1.2 0.1 -3.2
v 1.2 0.2 -3.2
v 1.2 0.3 -3.2
v 1.2 0.7 -3.2
v 1.2 0.8 -3.2
v 1.2 0.9 -3.2
v 1.3 0.8 -3.2
v 1.3 0.9 -3.2
v 1.4 0.1 -3.2
v 1.4 0.2 -3.2
v 0 0.1 -3.3
v 0 1 -3.3
v 0.1 0.1 -3.3
v 0.1 0.6 -3.3
v 0.2 0.2 -3.3
v 0.2 0.6 -3.3
v 0.2 1 -3.3
v 0.3 0.1 -3.3
v 0.3 0.2 -3.3
v 0.3 0.6 -3.3
v 0.3 1 -3.3
v 0.5 0.1 -3.3
v 0.5 0.2 -3.3
v 0.6 0.2 -3.3
v 0.6 0.3 -3.3
v 0.7 0.3 -3.3
v 0.7 0.4 -3.3
v 0.7 0.5 -3.3
v 0.8 0.5 -3.3
v 0.8 0.6 -3.3
v 0.9 0.5 -3.3
v 0.9 0.6 -3.3
v 1 0.5 -3.3
v 1 0.6 -3.3
v 1 0.7 -3.3
v 1.1 0.1 -3.3
v 1.1 0.2 -3.3
v 1.1 0.3 -3.3
v 1.1 0.5 -3.3
v 1.1 0.6 -3.3
v 1.1 0.7 -3.3
v 1.1 0.8 -3.3
v 1.2 0.1 -3.3
v 1.2 0.2 -3.3
v 1.2 0.3 -3.3
v 1.2 0.5 -3.3
v 1.2 0.7 -3.3
v 1.2 0.8 -3.3
v 1.2 0.9 -3.3
v 1.3 0.2 -3.3
v 1.3 0.5 -3.3
v 1.3 0.8 -3.3
v 1.3 0.9 -3.3
v 1.4 0.2 -3.3
v 1.4 0.9 -3.3
v 1.4 1 -3.3
v 1.5 0.1 -3.3
v 1.5 0.9 -3.3
v 1.5 1 -3.3
v 1.8 0.1 -3.3
v 1.8 1 -3.3
v 1.9 0.1 -3.3
v 1.9 1 -3.3
v 2 0.1 -3.3
v 2 1 -3.3
v 2.1 0.1 -3.3
v 2.1 1 -3.3
v 2.3 0.1 -3.3
v 2.3 1 -3.3
v 2.5 0.3 -3.3
v 2.5 0.9 -3.3
v 2.6 0.2 -3.3
v 2.6 0.3 -3.3
v 2.6 0.9 -3.3
v 2.6 1 -3.3
v 2.7 0.1 -3.3
v 2.7 0.2 -3.3
v 2.9 0.1 -3.3
v 2.9 1 -3.3
v 3 0.2 -3.3
v 3 0.4 -3.3
v 3.1 0.1 -3.3
v 3.1 0.2 -3.3
v 3.1 0.4 -3.3
v 3.5 0.1 -3.3
v 3.5 0.2 -3.3
v 3.6 0.2 -3.3
v 3.6 0.3 -3.3
v 3.7 0.2 -3.3
v 3.7 0.3 -3.3
v 0.1 0.2 -3.4
v 0.1 0.6 -3.4
v 0.2 0.1 -3.4
v 0.2 0.2 -3.4
v 0.2 0.6 -3.4
v 0.2 1 -3.4
v 0.3 0.1 -3.4
v 0.3 0.2 -3.4
v 0.3 0.6 -3.4
v 0.3 1 -3.4
v 0.5 0.1 -3.4
v 0.5 0.2 -3.4
v 0.6 0.2 -3.4
v 0.6 0.3 -3.4
v 0.7 0.3 -3.4
v 0.7 0.4 -3.4
v 0.8 0.4 -3.4
v 0.8 0.5 -3.4
v 0.9 0.5 -3.4
v 1.1 0.1 -3.4
v 1.1 0.5 -3.4
v 1.2 0.2 -3.4
v 1.2 0.5 -3.4
v 1.3 0.2 -3.4
v 1.3 0.5 -3.4
v 1.4 0.1 -3.4
v 1.4 0.9 -3.4
v 1.5 0.1 -3.4
v 1.5 0.9 -3.4
v 2 0.1 -3.4
v 2 1 -3.4
v 2.1 0.1 -3.4
v 2.1 1 -3.4
v 2.3 0.1 -3.4
v 2.3 1 -3.4
v 2.5 0.3 -3.4
v 2.5 0.9 -3.4
v 2.6 0.2 -3.4
v 2.6 0.3 -3.4
v 2.6 0.9 -3.4
v 2.6 1 -3.4
v 2.7 0.1 -3.4
v 2.7 0.2 -3.4
v 2.9 0.1 -3.4
v 2.9 0.5 -3.4
v 3 0.2 -3.4
v 3 0.4 -3.4
v 3 0.5 -3.4
v 3 0.9 -3.4
v 3.1 0.1 -3.4
v 3.1 0.2 -3.4
v 3.1 0.4 -3.4
v 3.1 0.9 -3.4
v 3.1 1 -3.4
v 3.5 0.1 -3.4
v 3.5 0.2 -3.4
v 3.5 0.3 -3.4
v 3.5 0.8 -3.4
v 3.6 0.2 -3.4
v 3.6 0.3 -3.4
v 3.6 0.8 -3.4
v 3.6 1 -3.4
v 3.7 0.2 -3.4
v 3.7 0.3 -3.4
v 3.7 0.8 -3.4
v 3.7 1 -3.4
v 3.8 0.4 -3.4
v 3.8 0.8 -3.4
v 3.8 1 -3.4
v 3.9 0.1 -3.4
v 3.9 0.4 -3.4
v 3.9 0.8 -3.4
v 3.9 1 -3.4
v 0.1 0.1 -3.5
v 0.1 0.2 -3.5
v 0.2 0.1 -3.5
v 0.2 0.2 -3.5
v 1.8 0.1 -3.5
v 1.8 1 -3.5
v 1.9 0.1 -3.5
v 1.9 1 -3.5
v 2.9 0.5 -3.5
v 2.9 1 -3.5
v 3 0.5 -3.5
v 3 0.9 -3.5
v 3.1 0.9 -3.5
v 3.1 1 -3.5
v 3.5 0.3 -3.5
v 3.5 0.8 -3.5
v 3.6 0.3 -3.5
v 3.6 0.8 -3.5
v 3.6 1 -3.5
v 3.7 0.8 -3.5
v 3.7 1 -3.5
v 3.9 0.1 -3.5
v 3.9 0.4 -3.5
v 3.9 0.5 -3.5
v 4 0.1 -3.5
v 4 0.5 -3.5
v 3.9 0.5 -3.6
v 3.9 1 -3.6
v 4 0.5 -3.6
v 4 1 -3.6
v 1.3 0.8 -3.2
v 1.3 0.9 -3.2
v 1.4 0.8 -3.2
v 1.4 0.9 -3.2
v 0.8 0.3 -3.3
v 0.8 0.4 -3.3
v 1 0.2 -3.3
v 1 0.3 -3.3
v 1 0.4 -3.3
v 1.1 0.2 -3.3
v 1.1 0.3 -3.3
v 0 0.1 -6
v 0 1 -6
v 4 0.1 -6
v 4 1 -6
v 1.2 0.1 -3.2
v 1.4 0.1 -3.2
v 0 0.1 -3.3
v 0.1 0.1 -3.3
v 0.3 0.1 -3.3
v 0.5 0.1 -3.3
v 1.1 0.1 -3.3
v 1.2 0.1 -3.3
v 1.3 0.1 -3.3
v 1.4 0.1 -3.3
v 1.5 0.1 -3.3
v 1.8 0.1 -3.3
v 1.9 0.1 -3.3
v 2 0.1 -3.3
v 2.1 0.1 -3.3
v 2.3 0.1 -3.3
v 2.7 0.1 -3.3
v 2.9 0.1 -3.3
v 3.1 0.1 -3.3
v 3.5 0.1 -3.3
v 0.2 0.1 -3.4
v 0.3 0.1 -3.4
v 0.5 0.1 -3.4
v 1.1 0.1 -3.4
v 1.2 0.1 -3.4
v 1.3 0.1 -3.4
v 1.4 0.1 -3.4
v 1.5 0.1 -3.4
v 2 0.1 -3.4
v 2.1 0.1 -3.4
v 2.3 0.1 -3.4
v 2.7 0.1 -3.4
v 2.9 0.1 -3.4
v 3.1 0.1 -3.4
v 3.5 0.1 -3.4
v 3.9 0.1 -3.4
v 0.1 0.1 -3.5
v 0.2 0.1 -3.5
v 1.8 0.1 -3.5
v 1.9 0.1 -3.5
v 3.9 0.1 -3.5
v 4 0.1 -3.5
v 0 0.1 -6
v 4 0.1 -6
v 1 0.2 -3.2
v 1.2 0.2 -3.2
v 0.2 0.2 -3.3
v 0.3 0.2 -3.3
v 0.5 0.2 -3.3
v 0.6 0.2 -3.3
v 1 0.2 -3.3
v 1.1 0.2 -3.3
v 1.2 0.2 -3.3
v 2.6 0.2 -3.3
v 2.7 0.2 -3.3
v 3 0.2 -3.3
v 3.1 0.2 -3.3
v 3.6 0.2 -3.3
v 3.7 0.2 -3.3
v 0.1 0.2 -3.4
v 0.2 0.2 -3.4
v 0.3 0.2 -3.4
v 0.5 0.2 -3.4
v 0.6 0.2 -3.4
v 2.6 0.2 -3.4
v 2.7 0.2 -3.4
v 3 0.2 -3.4
v 3.1 0.2 -3.4
v 3.6 0.2 -3.4
v 3.7 0.2 -3.4
v 0.1 0.2 -3.5
v 0.2 0.2 -3.5
v 0.8 0.3 -3.2
v 1 0.3 -3.2
v 0.6 0.3 -3.3
v 0.7 0.3 -3.3
v 0.8 0.3 -3.3
v 1 0.3 -3.3
v 2.5 0.3 -3.3
v 2.6 0.3 -3.3
v 0.6 0.3 -3.4
v 0.7 0.3 -3.4
v 2.5 0.3 -3.4
v 2.6 0.3 -3.4
v 0.7 0.4 -3.2
v 0.8 0.4 -3.2
v 0.7 0.4 -3.3
v 0.8 0.4 -3.3
v 0.7 0.4 -3.4
v 0.8 0.4 -3.4
v 0.9 0.5 -3.2
v 1 0.5 -3.2
v 0.8 0.5 -3.3
v 0.9 0.5 -3.3
v 1 0.5 -3.3
v 1.1 0.5 -3.3
v 1.2 0.5 -3.3
v 1.3 0.5 -3.3
v 0.8 0.5 -3.4
v 0.9 0.5 -3.4
v 1.1 0.5 -3.4
v 1.2 0.5 -3.4
v 1.3 0.5 -3.4
v 1 0.6 -3.2
v 1.1 0.6 -3.2
v 0.1 0.6 -3.3
v 0.2 0.6 -3.3
v 1 0.6 -3.3
v 1.1 0.6 -3.3
v 0.1 0.6 -3.4
v 0.2 0.6 -3.4
v 1.1 0.7 -3.2
v 1.2 0.7 -3.2
v 1.1 0.7 -3.3
v 1.2 0.7 -3.3
v 1.3 0.8 -3.1
v 1.4 0.8 -3.1
v 1.2 0.8 -3.2
v 1.3 0.8 -3.2
v 1.4 0.8 -3.2
v 1.2 0.8 -3.3
v 1.3 0.8 -3.3
v 3.5 0.8 -3.4
v 3.6 0.8 -3.4
v 3.5 0.8 -3.5
v 3.6 0.8 -3.5
v 1.4 0.9 -3.1
v 1.5 0.9 -3.1
v 1.4 0.9 -3.2
v 1.4 0.9 -3.3
v 1.5 0.9 -3.3
v 1.4 0.9 -3.4
v 1.5 0.9 -3.4
v 1.2 0.2 -3.2
v 1.4 0.2 -3.2
v 1.2 0.2 -3.3
v 1.3 0.2 -3.3
v 1.4 0.2 -3.3
v 3.1 0.2 -3.3
v 3.5 0.2 -3.3
v 1.2 0.2 -3.4
v 1.3 0.2 -3.4
v 3.1 0.2 -3.4
v 3.5 0.2 -3.4
v 1 0.3 -3.2
v 1.2 0.3 -3.2
v 1 0.3 -3.3
v 1.1 0.3 -3.3
v 1.2 0.3 -3.3
v 3.6 0.3 -3.3
v 3.7 0.3 -3.3
v 3.5 0.3 -3.4
v 3.6 0.3 -3.4
v 3.7 0.3 -3.4
v 3.5 0.3 -3.5
v 3.6 0.3 -3.5
v 0.8 0.4 -3.2
v 1 0.4 -3.2
v 0.8 0.4 -3.3
v 1 0.4 -3.3
v 3 0.4 -3.3
v 3.1 0.4 -3.3
v 3 0.4 -3.4
v 3.1 0.4 -3.4
v 0.7 0.5 -3.2
v 0.8 0.5 -3.2
v 0.7 0.5 -3.3
v 0.8 0.5 -3.3
v 2.9 0.5 -3.4
v 3 0.5 -3.4
v 2.9 0.5 -3.5
v 3 0.5 -3.5
v 3.9 0.5 -3.5
v 4 0.5 -3.5
v 3.9 0.5 -3.6
v 4 0.5 -3.6
v 0.9 0.6 -3.2
v 1 0.6 -3.2
v 0.2 0.6 -3.3
v 0.3 0.6 -3.3
v 0.9 0.6 -3.3
v 1 0.6 -3.3
v 0.2 0.6 -3.4
v 0.3 0.6 -3.4
v 1 0.7 -3.2
v 1.1 0.7 -3.2
v 1 0.7 -3.3
v 1.1 0.7 -3.3
v 1.1 0.8 -3.2
v 1.2 0.8 -3.2
v 1.1 0.8 -3.3
v 1.2 0.8 -3.3
v 3.6 0.8 -3.4
v 3.7 0.8 -3.4
v 3.6 0.8 -3.5
v 3.7 0.8 -3.5
v 1.3 0.9 -3.1
v 1.4 0.9 -3.1
v 1.2 0.9 -3.2
v 1.3 0.9 -3.2
v 1.4 0.9 -3.2
v 1.2 0.9 -3.3
v 1.3 0.9 -3.3
v 2.5 0.9 -3.3
v 2.6 0.9 -3.3
v 2.5 0.9 -3.4
v 2.6 0.9 -3.4
v 3 0.9 -3.4
v 3.1 0.9 -3.4
v 3 0.9 -3.5
v 3.1 0.9 -3.5
v 1.4 1 -3.1
v 1.5 1 -3.1
v 0 1 -3.3
v 0.2 1 -3.3
v 0.3 1 -3.3
v 1.4 1 -3.3
v 1.5 1 -3.3
v 1.8 1 -3.3
v 1.9 1 -3.3
v 2 1 -3.3
v 2.1 1 -3.3
v 2.3 1 -3.3
v 2.6 1 -3.3
v 2.9 1 -3.3
v 0.2 1 -3.4
v 0.3 1 -3.4
v 1.4 1 -3.4
v 1.5 1 -3.4
v 2 1 -3.4
v 2.1 1 -3.4
v 2.3 1 -3.4
v 2.6 1 -3.4
v 3.1 1 -3.4
v 3.6 1 -3.4
v 3.7 1 -3.4
v 3.8 1 -3.4
v 3.9 1 -3.4
v 1.8 1 -3.5
v 1.9 1 -3.5
v 2.9 1 -3.5
v 3.1 1 -3.5
v 3.6 1 -3.5
v 3.7 1 -3.5
v 3.8 1 -3.5
v 3.9 1 -3.6
v 4 1 -3.6
v 0 1 -6
v 4 1 -6

# faces
f 3/1/1 2/1/1 1/1/1
f 4/1/1 2/1/1 3/1/1
f 8/1/1 6/1/1 5/1/1
f 9/1/1 6/1/1 8/1/1
f 10/1/1 8/1/1 7/1/1
f 11/1/1 8/1/1 10/1/1
f 14/1/1 13/1/1 12/1/1
f 15/1/1 13/1/1 14/1/1
f 18/1/1 17/1/1 16/1/1
f 19/1/1 17/1/1 18/1/1
f 22/2/1 21/2/1 20/2/1
f 23/2/1 21/2/1 22/2/1
f 26/2/1 25/2/1 24/2/1
f 27/2/1 25/2/1 26/2/1
f 30/2/1 29/2/1 28/2/1
f 31/2/1 29/2/1 30/2/1
f 34/2/1 33/2/1 32/2/1
f 35/2/1 33/2/1 34/2/1
f 38/2/1 37/2/1 36/2/1
f 39/2/1 37/2/1 38/2/1
f 42/1/1 41/1/1 40/1/1
f 43/1/1 41/1/1 42/1/1
f 44/1/1 41/1/1 43/1/1
f 45/1/1 41/1/1 44/1/1
f 48/2/1 47/2/1 46/2/1
f 49/2/1 47/2/1 48/2/1
f 52/2/1 51/2/1 50/2/1
f 53/2/1 51/2/1 52/2/1
f 56/2/1 55/2/1 54/2/1
f 57/2/1 55/2/1 56/2/1
f 60/1/1 59/1/1 58/1/1
f 61/1/1 59/1/1 60/1/1
f 64/2/1 63/2/1 62/2/1
f 65/2/1 63/2/1 64/2/1
f 69/2/1 67/2/1 66/2/1
f 69/2/1 68/2/1 67/2/1
f 70/2/1 68/2/1 69/2/1
f 73/1/1 72/1/1 71/1/1
f 74/1/1 72/1/1 73/1/1
f 77/1/1 76/1/1 75/1/1
f 78/1/1 76/1/1 77/1/1
f 81/1/1 80/1/1 79/1/1
f 82/1/1 80/1/1 81/1/1
f 85/1/1 84/1/1 83/1/1
f 86/1/1 84/1/1 85/1/1
f 89/1/1 88/1/1 87/1/1
f 90/1/1 88/1/1 89/1/1
f 93/1/1 92/1/1 91/1/1
f 94/1/1 92/1/1 93/1/1
f 97/1/1 96/1/1 95/1/1
f 98/1/1 96/1/1 97/1/1
f 101/1/1 100/1/1 99/1/1
f 102/1/1 100/1/1 101/1/1
f 105/1/1 104/1/1 103/1/1
f 106/1/1 104/1/1 105/1/1
f 109/1/1 108/1/1 107/1/1
f 110/1/1 108/1/1 109/1/1
f 113/1/1 112/1/1 111/1/1
f 114/1/1 112/1/1 113/1/1
f 117/1/1 116/1/1 115/1/1
f 118/1/1 116/1/1 117/1/1
f 120/1/1 119/1/1 118/1/1
f 121/1/1 119/1/1 120/1/1
f 124/3/1 123/3/1 122/3/1
f 125/3/1 123/3/1 124/3/1
f 126/1/2 127/1/2 128/1/2
f 128/1/2 127/1/2 129/1/2
f 126/1/2 128/1/2 130/1/2
f 130/1/2 128/1/2 131/1/2
f 132/1/2 133/1/2 134/1/2
f 134/1/2 133/1/2 135/1/2
f 136/1/2 137/1/2 138/1/2
f 138/1/2 137/1/2 139/1/2
f 140/1/2 141/1/2 142/1/2
f 142/1/2 141/1/2 143/1/2
f 144/1/2 145/1/2 146/1/2
f 146/1/2 145/1/2 147/1/2
f 148/2/2 149/2/2 151/2/2
f 149/2/2 150/2/2 151/2/2
f 151/2/2 150/2/2 152/2/2
f 152/2/2 150/2/2 153/2/2
f 154/2/2 155/2/2 156/2/2
f 156/2/2 155/2/2 157/2/2
f 158/2/2 159/2/2 160/2/2
f 160/2/2 159/2/2 161/2/2
f 162/2/2 163/2/2 164/2/2
f 164/2/2 163/2/2 165/2/2
f 166/2/2 167/2/2 169/2/2
f 167/1/2 168/1/2 170/1/2
f 169/2/2 167/2/2 170/2/2
f 170/1/2 168/1/2 171/1/2
f 171/1/2 168/1/2 172/1/2
f 173/2/2 174/2/2 175/2/2
f 175/2/2 174/2/2 176/2/2
f 177/2/2 178/2/2 179/2/2
f 179/2/2 178/2/2 180/2/2
f 181/2/2 182/2/2 184/2/2
f 182/1/2 183/1/2 185/1/2
f 184/2/2 182/2/2 185/2/2
f 186/2/2 187/2/2 188/2/2
f 188/2/2 187/2/2 189/2/2
f 185/1/2 183/1/2 190/1/2
f 190/1/2 183/1/2 191/1/2
f 192/2/2 193/2/2 194/2/2
f 194/2/2 193/2/2 195/2/2
f 196/1/2 197/1/2 198/1/2
f 198/1/2 197/1/2 199/1/2
f 200/1/2 201/1/2 202/1/2
f 202/1/2 201/1/2 203/1/2
f 204/1/2 205/1/2 206/1/2
f 206/1/2 205/1/2 207/1/2
f 208/1/2 209/1/2 210/1/2
f 208/1/2 210/1/2 212/1/2
f 210/1/2 211/1/2 212/1/2
f 212/1/2 211/1/2 213/1/2
f 214/1/2 215/1/2 216/1/2
f 216/1/2 215/1/2 217/1/2
f 218/1/2 219/1/2 220/1/2
f 220/1/2 219/1/2 221/1/2
f 222/1/2 223/1/2 224/1/2
f 224/1/2 223/1/2 225/1/2
f 226/1/2 227/1/2 228/1/2
f 228/1/2 227/1/2 229/1/2
f 230/1/2 231/1/2 232/1/2
f 232/1/2 231/1/2 233/1/2
f 234/1/2 235/1/2 236/1/2
f 236/1/2 235/1/2 237/1/2
f 236/3/2 237/3/2 238/3/2
f 236/3/2 238/3/2 240/3/2
f 238/1/2 239/1/2 241/1/2
f 240/3/2 238/3/2 241/3/2
f 240/1/2 241/1/2 242/1/2
f 241/1/2 239/1/2 243/1/2
f 242/1/2 241/1/2 243/1/2
f 244/1/2 245/1/2 246/1/2
f 246/1/2 245/1/2 247/1/2
f 247/1/2 245/1/2 248/1/2
f 248/1/2 245/1/2 249/1/2
f 252/2/3 251/2/3 250/2/3
f 253/2/3 251/2/3 252/2/3
f 255/2/3 254/2/3 253/2/3
f 256/2/3 254/2/3 255/2/3
f 260/2/3 258/2/3 257/2/3
f 261/2/3 258/2/3 260/2/3
f 265/2/3 260/2/3 259/2/3
f 266/2/3 260/2/3 265/2/3
f 267/2/3 263/2/3 262/2/3
f 268/2/3 263/2/3 267/2/3
f 270/2/3 269/2/3 268/2/3
f 271/2/3 269/2/3 270/2/3
f 274/2/3 265/2/3 264/2/3
f 275/2/3 265/2/3 274/2/3
f 276/2/3 272/2/3 271/2/3
f 277/2/3 272/2/3 276/2/3
f 279/2/3 278/2/3 277/2/3
f 280/2/3 278/2/3 279/2/3
f 281/2/3 274/2/3 273/2/3
f 282/2/3 274/2/3 281/2/3
f 285/1/3 284/1/3 283/1/3
f 286/1/3 284/1/3 285/1/3
f 288/1/3 284/1/3 286/1/3
f 289/1/3 284/1/3 288/1/3
f 291/1/3 288/1/3 287/1/3
f 292/1/3 288/1/3 291/1/3
f 294/1/3 291/1/3 290/1/3
f 294/1/3 293/1/3 292/1/3
f 294/1/3 292/1/3 291/1/3
f 295/1/3 293/1/3 294/1/3
f 296/1/3 293/1/3 295/1/3
f 297/1/3 293/1/3 296/1/3
f 298/1/3 293/1/3 297/1/3
f 299/1/3 293/1/3 298/1/3
f 300/1/3 293/1/3 299/1/3
f 301/1/3 293/1/3 300/1/3
f 302/1/3 293/1/3 301/1/3
f 303/2/3 302/2/3 301/2/3
f 304/1/3 293/1/3 302/1/3
f 304/2/3 302/2/3 303/2/3
f 306/1/3 293/1/3 304/1/3
f 307/1/3 293/1/3 306/1/3
f 311/1/3 306/1/3 305/1/3
f 312/1/3 306/1/3 311/1/3
f 313/1/3 293/1/3 307/1/3
f 314/1/3 293/1/3 313/1/3
f 315/1/3 309/1/3 308/1/3
f 316/1/3 309/1/3 315/1/3
f 317/1/3 312/1/3 311/1/3
f 317/1/3 311/1/3 310/1/3
f 317/1/3 313/1/3 312/1/3
f 318/1/3 313/1/3 317/1/3
f 319/1/3 313/1/3 318/1/3
f 320/1/3 293/1/3 314/1/3
f 321/1/3 293/1/3 320/1/3
f 323/1/3 319/1/3 318/1/3
f 323/1/3 320/1/3 319/1/3
f 324/1/3 320/1/3 323/1/3
f 325/1/3 293/1/3 321/1/3
f 326/1/3 324/1/3 323/1/3
f 326/1/3 325/1/3 324/1/3
f 326/1/3 323/1/3 322/1/3
f 327/1/3 293/1/3 325/1/3
f 327/1/3 325/1/3 326/1/3
f 328/1/3 293/1/3 327/1/3
f 332/1/3 330/1/3 329/1/3
f 332/1/3 331/1/3 330/1/3
f 333/1/3 331/1/3 332/1/3
f 336/1/3 335/1/3 334/1/3
f 337/1/3 335/1/3 336/1/3
f 340/1/3 339/1/3 338/1/3
f 341/1/3 339/1/3 340/1/3
f 345/1/3 343/1/3 342/1/3
f 346/1/3 343/1/3 345/1/3
f 349/1/3 345/1/3 344/1/3
f 349/1/3 347/1/3 346/1/3
f 349/1/3 346/1/3 345/1/3
f 350/1/3 349/1/3 348/1/3
f 351/1/3 347/1/3 349/1/3
f 351/1/3 349/1/3 350/1/3
f 355/1/3 353/1/3 352/1/3
f 356/1/3 353/1/3 355/1/3
f 357/1/3 355/1/3 354/1/3
f 358/1/3 355/1/3 357/1/3
f 361/1/3 360/1/3 359/1/3
f 362/1/3 360/1/3 361/1/3
f 366/1/3 364/1/3 363/1/3
f 367/1/3 364/1/3 366/1/3
f 369/1/3 366/1/3 365/1/3
f 370/1/3 366/1/3 369/1/3
f 371/1/3 368/1/3 367/1/3
f 372/1/3 368/1/3 371/1/3
f 375/1/3 374/1/3 373/1/3
f 377/1/3 376/1/3 375/1/3
f 379/1/3 378/1/3 377/1/3
f 381/1/3 380/1/3 379/1/3
f 382/1/3 375/1/3 373/1/3
f 382/1/3 377/1/3 375/1/3
f 382/1/3 381/1/3 379/1/3
f 382/1/3 379/1/3 377/1/3
f 383/1/3 381/1/3 382/1/3
f 386/1/3 385/1/3 384/1/3
f 387/1/3 385/1/3 386/1/3
f 390/1/3 389/1/3 388/1/3
f 391/1/3 389/1/3 390/1/3
f 394/1/3 393/1/3 392/1/3
f 395/1/3 393/1/3 394/1/3
f 398/1/3 397/1/3 396/1/3
f 399/1/3 397/1/3 398/1/3
f 400/1/3 398/1/3 396/1/3
f 401/1/3 398/1/3 400/1/3
f 402/1/3 397/1/3 399/1/3
f 403/1/3 397/1/3 402/1/3
f 404/1/3 400/1/3 396/1/3
f 405/1/3 400/1/3 404/1/3
f 408/1/3 407/1/3 406/1/3
f 409/1/3 407/1/3 408/1/3
f 410/1/3 407/1/3 409/1/3
f 412/1/3 408/1/3 406/1/3
f 413/1/3 408/1/3 412/1/3
f 414/1/3 411/1/3 410/1/3
f 414/1/3 410/1/3 409/1/3
f 415/1/3 411/1/3 414/1/3
f 418/1/3 416/1/3 415/1/3
f 418/1/3 415/1/3 414/1/3
f 418/1/3 414/1/3 413/1/3
f 419/1/3 416/1/3 418/1/3
f 420/1/3 416/1/3 419/1/3
f 421/1/3 418/1/3 417/1/3
f 421/1/3 419/1/3 418/1/3
f 422/1/3 419/1/3 421/1/3
f 423/1/3 416/1/3 420/1/3
f 424/1/3 416/1/3 423/1/3
f 425/1/3 421/1/3 417/1/3
f 426/1/3 423/1/3 422/1/3
f 427/1/3 423/1/3 426/1/3
f 429/1/3 426/1/3 425/1/3
f 429/1/3 427/1/3 426/1/3
f 430/3/3 428/3/3 427/3/3
f 430/1/3 427/1/3 429/1/3
f 431/3/3 428/3/3 430/3/3
f 432/1/3 425/1/3 417/1/3
f 432/1/3 429/1/3 425/1/3
f 433/3/3 430/3/3 429/3/3
f 433/1/3 429/1/3 432/1/3
f 434/1/3 431/1/3 430/1/3
f 434/3/3 430/3/3 433/3/3
f 435/1/3 431/1/3 434/1/3
f 438/1/3 437/1/3 436/1/3
f 439/1/3 437/1/3 438/1/3
f 442/1/3 441/1/3 440/1/3
f 443/1/3 441/1/3 442/1/3
f 446/1/3 445/1/3 444/1/3
f 447/1/3 445/1/3 446/1/3
f 448/1/3 445/1/3 447/1/3
f 449/1/3 445/1/3 448/1/3
f 452/1/3 451/1/3 450/1/3
f 453/1/3 451/1/3 452/1/3
f 455/1/3 454/1/3 453/1/3
f 456/1/3 454/1/3 455/1/3
f 460/1/3 458/1/3 457/1/3
f 460/1/3 459/1/3 458/1/3
f 461/1/3 459/1/3 460/1/3
f 464/1/3 463/1/3 462/1/3
f 465/1/3 463/1/3 464/1/3
f 466/2/4 467/2/4 468/2/4
f 468/2/4 467/2/4 469/2/4
f 470/2/4 471/2/4 473/2/4
f 473/2/4 471/2/4 474/2/4
f 472/2/4 473/2/4 475/2/4
f 475/2/4 473/2/4 476/2/4
f 477/1/4 478/1/4 479/1/4
f 479/1/4 478/1/4 480/1/4
f 488/2/5 482/2/5 481/2/5
f 489/2/5 482/2/5 488/2/5
f 490/2/5 482/2/5 489/2/5
f 502/1/5 486/1/5 485/1/5
f 503/1/5 486/1/5 502/1/5
f 504/1/5 488/1/5 487/1/5
f 505/2/5 489/2/5 488/2/5
f 505/1/5 488/1/5 504/1/5
f 506/1/5 490/1/5 489/1/5
f 506/2/5 489/2/5 505/2/5
f 507/1/5 490/1/5 506/1/5
f 508/1/5 492/1/5 491/1/5
f 509/1/5 494/1/5 493/1/5
f 510/1/5 496/1/5 495/1/5
f 511/1/5 496/1/5 510/1/5
f 512/1/5 498/1/5 497/1/5
f 513/1/5 498/1/5 512/1/5
f 514/1/5 500/1/5 499/1/5
f 515/1/5 500/1/5 514/1/5
f 517/1/5 484/1/5 483/1/5
f 518/1/5 503/1/5 502/1/5
f 518/1/5 504/1/5 503/1/5
f 518/1/5 505/1/5 504/1/5
f 518/1/5 507/1/5 506/1/5
f 518/1/5 508/1/5 507/1/5
f 518/1/5 502/1/5 501/1/5
f 518/1/5 506/1/5 505/1/5
f 519/1/5 492/1/5 508/1/5
f 519/1/5 508/1/5 518/1/5
f 520/1/5 513/1/5 512/1/5
f 520/1/5 516/1/5 515/1/5
f 520/1/5 515/1/5 514/1/5
f 520/1/5 514/1/5 513/1/5
f 520/1/5 512/1/5 511/1/5
f 520/1/5 509/1/5 493/1/5
f 520/1/5 510/1/5 509/1/5
f 520/1/5 511/1/5 510/1/5
f 521/1/5 516/1/5 520/1/5
f 523/1/5 519/1/5 518/1/5
f 523/1/5 522/1/5 521/1/5
f 523/1/5 521/1/5 520/1/5
f 523/1/5 520/1/5 519/1/5
f 523/1/5 517/1/5 483/1/5
f 523/1/5 518/1/5 517/1/5
f 524/1/5 522/1/5 523/1/5
f 531/2/5 526/2/5 525/2/5
f 532/2/5 526/2/5 531/2/5
f 533/2/5 526/2/5 532/2/5
f 541/1/5 528/1/5 527/1/5
f 542/1/5 528/1/5 541/1/5
f 543/1/5 530/1/5 529/1/5
f 544/1/5 530/1/5 543/1/5
f 545/1/5 535/1/5 534/1/5
f 546/1/5 535/1/5 545/1/5
f 547/1/5 537/1/5 536/1/5
f 548/1/5 537/1/5 547/1/5
f 549/1/5 539/1/5 538/1/5
f 550/1/5 539/1/5 549/1/5
f 551/1/5 541/1/5 540/1/5
f 552/1/5 541/1/5 551/1/5
f 557/2/5 554/2/5 553/2/5
f 558/2/5 554/2/5 557/2/5
f 561/1/5 556/1/5 555/1/5
f 562/1/5 556/1/5 561/1/5
f 563/1/5 560/1/5 559/1/5
f 564/1/5 560/1/5 563/1/5
f 567/2/5 566/2/5 565/2/5
f 568/2/5 566/2/5 567/2/5
f 569/2/5 568/2/5 567/2/5
f 570/2/5 568/2/5 569/2/5
f 574/2/5 572/2/5 571/2/5
f 575/2/5 572/2/5 574/2/5
f 579/2/5 574/2/5 573/2/5
f 580/1/5 575/1/5 574/1/5
f 580/2/5 574/2/5 579/2/5
f 580/1/5 576/1/5 575/1/5
f 581/1/5 576/1/5 580/1/5
f 582/1/5 578/1/5 577/1/5
f 583/1/5 578/1/5 582/1/5
f 588/2/5 585/2/5 584/2/5
f 589/2/5 585/2/5 588/2/5
f 590/1/5 587/1/5 586/1/5
f 591/1/5 587/1/5 590/1/5
f 594/2/5 593/2/5 592/2/5
f 595/2/5 593/2/5 594/2/5
f 599/2/5 597/2/5 596/2/5
f 600/2/5 597/2/5 599/2/5
f 601/2/5 599/2/5 598/2/5
f 602/2/5 599/2/5 601/2/5
f 605/1/5 604/1/5 603/1/5
f 606/1/5 604/1/5 605/1/5
f 609/2/5 608/2/5 607/2/5
f 610/2/5 608/2/5 609/2/5
f 611/2/5 608/2/5 610/2/5
f 612/2/5 611/2/5 610/2/5
f 613/2/5 611/2/5 612/2/5
f 614/2/6 615/2/6 616/2/6
f 616/2/6 615/2/6 617/2/6
f 617/2/6 615/2/6 618/2/6
f 616/2/6 617/2/6 621/2/6
f 621/2/6 617/2/6 622/2/6
f 619/1/6 620/1/6 623/1/6
f 623/1/6 620/1/6 624/1/6
f 625/2/6 626/2/6 627/2/6
f 627/2/6 626/2/6 628/2/6
f 628/2/6 626/2/6 629/2/6
f 630/1/6 631/1/6 633/1/6
f 633/1/6 631/1/6 634/1/6
f 632/1/6 633/1/6 635/1/6
f 635/1/6 633/1/6 636/1/6
f 637/2/6 638/2/6 639/2/6
f 639/2/6 638/2/6 640/2/6
f 641/1/6 642/1/6 643/1/6
f 643/1/6 642/1/6 644/1/6
f 645/2/6 646/2/6 647/2/6
f 647/2/6 646/2/6 648/2/6
f 649/1/6 650/1/6 651/1/6
f 651/1/6 650/1/6 652/1/6
f 653/1/6 654/1/6 655/1/6
f 655/1/6 654/1/6 656/1/6
f 657/2/6 658/2/6 661/2/6
f 661/2/6 658/2/6 662/2/6
f 659/1/6 660/1/6 663/1/6
f 663/1/6 660/1/6 664/1/6
f 665/2/6 666/2/6 667/2/6
f 667/2/6 666/2/6 668/2/6
f 669/2/6 670/2/6 671/2/6
f 671/2/6 670/2/6 672/2/6
f 673/1/6 674/1/6 675/1/6
f 675/1/6 674/1/6 676/1/6
f 677/2/6 678/2/6 680/2/6
f 680/2/6 678/2/6 681/2/6
f 679/2/6 680/2/6 682/2/6
f 682/2/6 680/2/6 683/2/6
f 684/1/6 685/1/6 686/1/6
f 686/1/6 685/1/6 687/1/6
f 688/1/6 689/1/6 690/1/6
f 690/1/6 689/1/6 691/1/6
f 692/2/6 693/2/6 697/2/6
f 697/2/6 693/2/6 698/2/6
f 694/1/6 695/1/6 706/1/6
f 696/1/6 697/1/6 707/1/6
f 697/2/6 698/2/6 708/2/6
f 707/1/6 697/1/6 708/1/6
f 698/1/6 699/1/6 709/1/6
f 708/2/6 698/2/6 709/2/6
f 700/1/6 701/1/6 710/1/6
f 702/1/6 703/1/6 711/1/6
f 711/1/6 703/1/6 712/1/6
f 704/1/6 705/1/6 713/1/6
f 706/1/6 707/1/6 719/1/6
f 707/1/6 708/1/6 719/1/6
f 709/1/6 699/1/6 719/1/6
f 708/1/6 709/1/6 719/1/6
f 711/1/6 712/1/6 720/1/6
f 700/1/6 710/1/6 720/1/6
f 712/1/6 713/1/6 720/1/6
f 710/1/6 711/1/6 720/1/6
f 713/1/6 705/1/6 721/1/6
f 720/1/6 713/1/6 721/1/6
f 714/1/6 715/1/6 722/1/6
f 722/1/6 715/1/6 723/1/6
f 716/3/6 717/3/6 724/3/6
f 717/1/6 718/1/6 725/1/6
f 724/3/6 717/3/6 725/3/6
f 723/1/6 724/1/6 726/1/6
f 725/1/6 718/1/6 726/1/6
f 724/1/6 725/1/6 726/1/6
f 722/1/6 723/1/6 726/1/6
f 721/1/6 722/1/6 726/1/6
f 720/1/6 721/1/6 726/1/6
f 719/1/6 720/1/6 726/1/6
f 706/1/6 719/1/6 728/1/6
f 726/1/6 727/1/6 728/1/6
f 719/1/6 726/1/6 728/1/6
f 694/1/6 706/1/6 728/1/6
f 728/1/6 727/1/6 729/1/6
