# MagicaVoxel @ Ephtracy

# group
o 

# material
mtllib cabeza.mtl
usemtl palette

# normals
vn -1 0 0
vn 1 0 0
vn 0 0 1
vn 0 0 -1
vn 0 -1 0
vn 0 1 0

# texcoords
vt 0.0253906 0.5
vt 0.306641 0.5
vt 0.876953 0.5
vt 0.916016 0.5
vt 0.958984 0.5

# verts
v 0.4 1.2 -0.8
v 0.4 1.2 -0.9
v 0.4 1.3 -0.7
v 0.4 1.3 -0.8
v 0.4 1.4 -0.6
v 0.4 1.4 -0.7
v 0.4 1.4 -0.8
v 0.4 1.4 -0.9
v 0.4 1.4 -1
v 0.4 1.5 -0.6
v 0.4 1.5 -0.7
v 0.4 1.5 -0.9
v 0.4 1.5 -1
v 0.4 1.6 -0.8
v 0.4 1.6 -0.9
v 0.5 1 -0.6
v 0.5 1 -0.8
v 0.5 1.1 -0.8
v 0.5 1.1 -0.9
v 0.5 1.2 -0.8
v 0.5 1.2 -0.9
v 0.5 1.2 -1.1
v 0.5 1.3 -0.7
v 0.5 1.3 -0.8
v 0.5 1.4 -0.6
v 0.5 1.4 -0.7
v 0.5 1.4 -0.8
v 0.5 1.4 -0.9
v 0.5 1.4 -1
v 0.5 1.5 -0.6
v 0.5 1.5 -0.7
v 0.5 1.5 -0.9
v 0.5 1.5 -1
v 0.5 1.5 -1.1
v 0.5 1.6 -0.6
v 0.5 1.6 -0.8
v 0.5 1.6 -0.9
v 0.5 1.6 -1
v 0.5 1.7 -0.8
v 0.5 1.7 -0.9
v 0.6 0.9 -0.7
v 0.6 0.9 -0.9
v 0.6 1 -0.5
v 0.6 1 -0.6
v 0.6 1 -0.7
v 0.6 1 -0.8
v 0.6 1.1 -0.8
v 0.6 1.1 -0.9
v 0.6 1.1 -1
v 0.6 1.2 -0.5
v 0.6 1.2 -0.6
v 0.6 1.2 -0.9
v 0.6 1.2 -1
v 0.6 1.4 -0.5
v 0.6 1.4 -0.6
v 0.6 1.5 -0.5
v 0.6 1.5 -0.6
v 0.6 1.5 -1
v 0.6 1.5 -1.1
v 0.6 1.6 -0.7
v 0.6 1.6 -0.8
v 0.6 1.6 -0.9
v 0.6 1.6 -1
v 0.6 1.6 -1.1
v 0.6 1.7 -0.7
v 0.6 1.7 -0.8
v 0.6 1.7 -0.9
v 0.6 1.7 -1
v 0.7 1.2 -0.5
v 0.7 1.2 -0.6
v 0.7 1.3 -0.5
v 0.7 1.3 -0.6
v 0.7 1.5 -0.6
v 0.7 1.5 -0.7
v 0.7 1.6 -0.6
v 0.7 1.6 -0.7
v 0.8 1 -0.5
v 0.8 1 -0.6
v 0.8 1.1 -0.5
v 0.8 1.1 -0.6
v 0.8 1.2 -1
v 0.8 1.2 -1.1
v 0.8 1.3 -1
v 0.8 1.3 -1.1
v 0.9 1.4 -0.5
v 0.9 1.4 -0.6
v 0.9 1.5 -0.5
v 0.9 1.5 -0.6
v 0.9 1.5 -0.7
v 0.9 1.6 -0.6
v 0.9 1.6 -0.7
v 0.9 1.6 -0.8
v 0.9 1.6 -0.9
v 0.9 1.7 -0.8
v 0.9 1.7 -0.9
v 0.6 1.2 -1
v 0.6 1.2 -1.1
v 0.6 1.3 -1
v 0.6 1.3 -1.1
v 0.6 1.5 -0.6
v 0.6 1.5 -0.7
v 0.6 1.6 -0.6
v 0.6 1.6 -0.7
v 0.7 1 -0.5
v 0.7 1 -0.6
v 0.7 1.1 -0.5
v 0.7 1.1 -0.6
v 0.8 1.2 -0.5
v 0.8 1.2 -0.6
v 0.8 1.3 -0.5
v 0.8 1.3 -0.6
v 0.8 1.4 -0.5
v 0.8 1.4 -0.6
v 0.8 1.5 -0.5
v 0.8 1.5 -0.6
v 0.8 1.5 -0.7
v 0.8 1.5 -1
v 0.8 1.5 -1.1
v 0.8 1.6 -0.6
v 0.8 1.6 -0.7
v 0.8 1.6 -0.8
v 0.8 1.6 -1
v 0.8 1.6 -1.1
v 0.8 1.7 -0.8
v 0.8 1.7 -1
v 0.9 0.9 -0.7
v 0.9 0.9 -0.9
v 0.9 1 -0.5
v 0.9 1 -0.6
v 0.9 1 -0.7
v 0.9 1 -0.8
v 0.9 1.1 -0.8
v 0.9 1.1 -0.9
v 0.9 1.1 -1
v 0.9 1.2 -0.5
v 0.9 1.2 -0.6
v 0.9 1.2 -0.9
v 0.9 1.2 -1
v 0.9 1.2 -1.1
v 0.9 1.4 -1
v 0.9 1.4 -1.1
v 0.9 1.6 -0.7
v 0.9 1.6 -0.8
v 0.9 1.7 -0.7
v 0.9 1.7 -0.8
v 1 1 -0.6
v 1 1 -0.8
v 1 1.1 -0.8
v 1 1.1 -0.9
v 1 1.2 -0.8
v 1 1.2 -0.9
v 1 1.2 -1
v 1 1.3 -0.7
v 1 1.3 -0.8
v 1 1.4 -0.5
v 1 1.4 -0.6
v 1 1.4 -0.7
v 1 1.4 -0.9
v 1 1.4 -1
v 1 1.4 -1.1
v 1 1.5 -0.5
v 1 1.5 -0.6
v 1 1.5 -0.8
v 1 1.5 -0.9
v 1 1.5 -1
v 1 1.5 -1.1
v 1 1.6 -0.6
v 1 1.6 -0.8
v 1 1.6 -0.9
v 1 1.6 -1
v 1 1.7 -0.8
v 1 1.7 -0.9
v 1.1 1.2 -0.8
v 1.1 1.2 -0.9
v 1.1 1.3 -0.7
v 1.1 1.3 -0.8
v 1.1 1.4 -0.6
v 1.1 1.4 -0.7
v 1.1 1.4 -0.8
v 1.1 1.4 -0.9
v 1.1 1.4 -1
v 1.1 1.5 -0.6
v 1.1 1.5 -0.8
v 1.1 1.5 -0.9
v 1.1 1.5 -1
v 1.1 1.6 -0.8
v 1.1 1.6 -0.9
v 0.6 1 -0.5
v 0.6 1.2 -0.5
v 0.6 1.4 -0.5
v 0.6 1.5 -0.5
v 0.7 1 -0.5
v 0.7 1.1 -0.5
v 0.7 1.2 -0.5
v 0.7 1.3 -0.5
v 0.8 1 -0.5
v 0.8 1.1 -0.5
v 0.8 1.2 -0.5
v 0.8 1.3 -0.5
v 0.8 1.4 -0.5
v 0.8 1.5 -0.5
v 0.9 1 -0.5
v 0.9 1.2 -0.5
v 0.9 1.4 -0.5
v 0.9 1.5 -0.5
v 1 1.4 -0.5
v 1 1.5 -0.5
v 0.4 1.4 -0.6
v 0.4 1.5 -0.6
v 0.5 1 -0.6
v 0.5 1.4 -0.6
v 0.5 1.5 -0.6
v 0.5 1.6 -0.6
v 0.6 1 -0.6
v 0.6 1.2 -0.6
v 0.6 1.3 -0.6
v 0.6 1.4 -0.6
v 0.6 1.5 -0.6
v 0.6 1.6 -0.6
v 0.7 1 -0.6
v 0.7 1.1 -0.6
v 0.7 1.2 -0.6
v 0.7 1.3 -0.6
v 0.7 1.4 -0.6
v 0.7 1.5 -0.6
v 0.7 1.6 -0.6
v 0.8 1 -0.6
v 0.8 1.1 -0.6
v 0.8 1.2 -0.6
v 0.8 1.3 -0.6
v 0.8 1.4 -0.6
v 0.8 1.5 -0.6
v 0.8 1.6 -0.6
v 0.9 1 -0.6
v 0.9 1.2 -0.6
v 0.9 1.3 -0.6
v 0.9 1.4 -0.6
v 0.9 1.5 -0.6
v 0.9 1.6 -0.6
v 1 1 -0.6
v 1 1.4 -0.6
v 1 1.5 -0.6
v 1 1.6 -0.6
v 1.1 1.4 -0.6
v 1.1 1.5 -0.6
v 0.4 1.3 -0.7
v 0.4 1.4 -0.7
v 0.5 1.3 -0.7
v 0.5 1.4 -0.7
v 0.6 0.9 -0.7
v 0.6 1 -0.7
v 0.6 1.5 -0.7
v 0.6 1.6 -0.7
v 0.6 1.7 -0.7
v 0.7 1.5 -0.7
v 0.7 1.6 -0.7
v 0.8 1.5 -0.7
v 0.8 1.6 -0.7
v 0.9 0.9 -0.7
v 0.9 1 -0.7
v 0.9 1.5 -0.7
v 0.9 1.6 -0.7
v 0.9 1.7 -0.7
v 1 1.3 -0.7
v 1 1.4 -0.7
v 1.1 1.3 -0.7
v 1.1 1.4 -0.7
v 0.4 1.2 -0.8
v 0.4 1.3 -0.8
v 0.4 1.4 -0.8
v 0.4 1.6 -0.8
v 0.5 1.2 -0.8
v 0.5 1.3 -0.8
v 0.5 1.4 -0.8
v 0.5 1.6 -0.8
v 0.5 1.7 -0.8
v 0.6 1.6 -0.8
v 0.6 1.7 -0.8
v 0.9 1.6 -0.8
v 0.9 1.7 -0.8
v 1 1.2 -0.8
v 1 1.3 -0.8
v 1 1.5 -0.8
v 1 1.6 -0.8
v 1 1.7 -0.8
v 1.1 1.2 -0.8
v 1.1 1.3 -0.8
v 1.1 1.5 -0.8
v 1.1 1.6 -0.8
v 0.4 1.4 -0.7
v 0.4 1.5 -0.7
v 0.5 1.4 -0.7
v 0.5 1.5 -0.7
v 0.5 1 -0.8
v 0.5 1.1 -0.8
v 0.6 1 -0.8
v 0.6 1.1 -0.8
v 0.8 1.6 -0.8
v 0.8 1.7 -0.8
v 0.9 1 -0.8
v 0.9 1.1 -0.8
v 0.9 1.6 -0.8
v 0.9 1.7 -0.8
v 1 1 -0.8
v 1 1.1 -0.8
v 0.4 1.2 -0.9
v 0.4 1.4 -0.9
v 0.4 1.5 -0.9
v 0.4 1.6 -0.9
v 0.5 1.1 -0.9
v 0.5 1.2 -0.9
v 0.5 1.4 -0.9
v 0.5 1.5 -0.9
v 0.5 1.6 -0.9
v 0.5 1.7 -0.9
v 0.6 0.9 -0.9
v 0.6 1.1 -0.9
v 0.6 1.2 -0.9
v 0.6 1.6 -0.9
v 0.6 1.7 -0.9
v 0.9 0.9 -0.9
v 0.9 1.1 -0.9
v 0.9 1.2 -0.9
v 0.9 1.6 -0.9
v 0.9 1.7 -0.9
v 1 1.1 -0.9
v 1 1.2 -0.9
v 1 1.4 -0.9
v 1 1.5 -0.9
v 1 1.6 -0.9
v 1 1.7 -0.9
v 1.1 1.2 -0.9
v 1.1 1.4 -0.9
v 1.1 1.5 -0.9
v 1.1 1.6 -0.9
v 0.4 1.4 -1
v 0.4 1.5 -1
v 0.5 1.4 -1
v 0.5 1.5 -1
v 0.5 1.6 -1
v 0.6 1.1 -1
v 0.6 1.2 -1
v 0.6 1.3 -1
v 0.6 1.5 -1
v 0.6 1.6 -1
v 0.6 1.7 -1
v 0.8 1.2 -1
v 0.8 1.3 -1
v 0.8 1.5 -1
v 0.8 1.6 -1
v 0.8 1.7 -1
v 0.9 1.1 -1
v 0.9 1.2 -1
v 0.9 1.4 -1
v 1 1.2 -1
v 1 1.4 -1
v 1 1.5 -1
v 1 1.6 -1
v 1.1 1.4 -1
v 1.1 1.5 -1
v 0.5 1.2 -1.1
v 0.5 1.5 -1.1
v 0.6 1.2 -1.1
v 0.6 1.3 -1.1
v 0.6 1.5 -1.1
v 0.6 1.6 -1.1
v 0.8 1.2 -1.1
v 0.8 1.3 -1.1
v 0.8 1.5 -1.1
v 0.8 1.6 -1.1
v 0.9 1.2 -1.1
v 0.9 1.4 -1.1
v 1 1.4 -1.1
v 1 1.5 -1.1
v 0.6 0.9 -0.7
v 0.9 0.9 -0.7
v 0.6 0.9 -0.9
v 0.9 0.9 -0.9
v 0.6 1 -0.5
v 0.7 1 -0.5
v 0.8 1 -0.5
v 0.9 1 -0.5
v 0.5 1 -0.6
v 0.6 1 -0.6
v 0.7 1 -0.6
v 0.8 1 -0.6
v 0.9 1 -0.6
v 1 1 -0.6
v 0.6 1 -0.7
v 0.9 1 -0.7
v 0.5 1 -0.8
v 0.6 1 -0.8
v 0.9 1 -0.8
v 1 1 -0.8
v 0.7 1.1 -0.5
v 0.8 1.1 -0.5
v 0.7 1.1 -0.6
v 0.8 1.1 -0.6
v 0.5 1.1 -0.8
v 0.6 1.1 -0.8
v 0.9 1.1 -0.8
v 1 1.1 -0.8
v 0.5 1.1 -0.9
v 0.6 1.1 -0.9
v 0.9 1.1 -0.9
v 1 1.1 -0.9
v 0.6 1.1 -1
v 0.9 1.1 -1
v 0.4 1.2 -0.8
v 0.5 1.2 -0.8
v 1 1.2 -0.8
v 1.1 1.2 -0.8
v 0.4 1.2 -0.9
v 0.5 1.2 -0.9
v 0.6 1.2 -0.9
v 0.9 1.2 -0.9
v 1 1.2 -0.9
v 1.1 1.2 -0.9
v 0.6 1.2 -1
v 0.8 1.2 -1
v 0.9 1.2 -1
v 1 1.2 -1
v 0.5 1.2 -1.1
v 0.6 1.2 -1.1
v 0.8 1.2 -1.1
v 0.9 1.2 -1.1
v 0.4 1.3 -0.7
v 0.5 1.3 -0.7
v 1 1.3 -0.7
v 1.1 1.3 -0.7
v 0.4 1.3 -0.8
v 0.5 1.3 -0.8
v 1 1.3 -0.8
v 1.1 1.3 -0.8
v 0.6 1.3 -1
v 0.8 1.3 -1
v 0.6 1.3 -1.1
v 0.8 1.3 -1.1
v 0.6 1.4 -0.5
v 0.8 1.4 -0.5
v 0.9 1.4 -0.5
v 1 1.4 -0.5
v 0.4 1.4 -0.6
v 0.5 1.4 -0.6
v 0.6 1.4 -0.6
v 0.7 1.4 -0.6
v 0.8 1.4 -0.6
v 0.9 1.4 -0.6
v 1 1.4 -0.6
v 1.1 1.4 -0.6
v 0.4 1.4 -0.7
v 0.5 1.4 -0.7
v 1 1.4 -0.7
v 1.1 1.4 -0.7
v 0.4 1.4 -0.9
v 0.5 1.4 -0.9
v 1 1.4 -0.9
v 1.1 1.4 -0.9
v 0.4 1.4 -1
v 0.5 1.4 -1
v 0.9 1.4 -1
v 1 1.4 -1
v 1.1 1.4 -1
v 0.9 1.4 -1.1
v 1 1.4 -1.1
v 0.6 1.2 -0.5
v 0.7 1.2 -0.5
v 0.8 1.2 -0.5
v 0.9 1.2 -0.5
v 0.6 1.2 -0.6
v 0.7 1.2 -0.6
v 0.8 1.2 -0.6
v 0.9 1.2 -0.6
v 0.7 1.3 -0.5
v 0.8 1.3 -0.5
v 0.7 1.3 -0.6
v 0.8 1.3 -0.6
v 0.4 1.4 -0.7
v 0.5 1.4 -0.7
v 0.4 1.4 -0.8
v 0.5 1.4 -0.8
v 0.6 1.5 -0.5
v 0.8 1.5 -0.5
v 0.9 1.5 -0.5
v 1 1.5 -0.5
v 0.4 1.5 -0.6
v 0.5 1.5 -0.6
v 0.6 1.5 -0.6
v 0.7 1.5 -0.6
v 0.8 1.5 -0.6
v 0.9 1.5 -0.6
v 1 1.5 -0.6
v 1.1 1.5 -0.6
v 0.4 1.5 -0.7
v 0.5 1.5 -0.7
v 0.6 1.5 -0.7
v 0.7 1.5 -0.7
v 0.8 1.5 -0.7
v 0.9 1.5 -0.7
v 1 1.5 -0.8
v 1.1 1.5 -0.8
v 0.4 1.5 -0.9
v 0.5 1.5 -0.9
v 1 1.5 -0.9
v 1.1 1.5 -0.9
v 0.4 1.5 -1
v 0.5 1.5 -1
v 0.6 1.5 -1
v 0.8 1.5 -1
v 1 1.5 -1
v 1.1 1.5 -1
v 0.5 1.5 -1.1
v 0.6 1.5 -1.1
v 0.8 1.5 -1.1
v 1 1.5 -1.1
v 0.5 1.6 -0.6
v 0.6 1.6 -0.6
v 0.7 1.6 -0.6
v 0.8 1.6 -0.6
v 0.9 1.6 -0.6
v 1 1.6 -0.6
v 0.6 1.6 -0.7
v 0.7 1.6 -0.7
v 0.8 1.6 -0.7
v 0.9 1.6 -0.7
v 0.4 1.6 -0.8
v 0.5 1.6 -0.8
v 0.6 1.6 -0.8
v 0.8 1.6 -0.8
v 0.9 1.6 -0.8
v 1 1.6 -0.8
v 1.1 1.6 -0.8
v 0.4 1.6 -0.9
v 0.5 1.6 -0.9
v 0.6 1.6 -0.9
v 0.9 1.6 -0.9
v 1 1.6 -0.9
v 1.1 1.6 -0.9
v 0.5 1.6 -1
v 0.6 1.6 -1
v 0.8 1.6 -1
v 1 1.6 -1
v 0.6 1.6 -1.1
v 0.8 1.6 -1.1
v 0.6 1.7 -0.7
v 0.9 1.7 -0.7
v 0.5 1.7 -0.8
v 0.6 1.7 -0.8
v 0.8 1.7 -0.8
v 0.9 1.7 -0.8
v 1 1.7 -0.8
v 0.5 1.7 -0.9
v 0.6 1.7 -0.9
v 0.9 1.7 -0.9
v 1 1.7 -0.9
v 0.6 1.7 -1
v 0.8 1.7 -1

# faces
f 4/5/1 2/5/1 1/5/1
f 6/4/1 4/4/1 3/4/1
f 7/5/1 2/5/1 4/5/1
f 7/4/1 4/4/1 6/4/1
f 8/5/1 2/5/1 7/5/1
f 10/4/1 6/4/1 5/4/1
f 11/4/1 6/4/1 10/4/1
f 12/4/1 9/4/1 8/4/1
f 12/4/1 8/4/1 7/4/1
f 13/4/1 9/4/1 12/4/1
f 14/4/1 12/4/1 7/4/1
f 15/4/1 12/4/1 14/4/1
f 18/5/1 17/5/1 16/5/1
f 20/5/1 18/5/1 16/5/1
f 20/4/1 19/4/1 18/4/1
f 21/4/1 19/4/1 20/4/1
f 23/5/1 20/5/1 16/5/1
f 24/5/1 20/5/1 23/5/1
f 25/5/1 23/5/1 16/5/1
f 26/5/1 23/5/1 25/5/1
f 28/4/1 22/4/1 21/4/1
f 29/4/1 22/4/1 28/4/1
f 31/4/1 27/4/1 26/4/1
f 33/4/1 22/4/1 29/4/1
f 34/4/1 22/4/1 33/4/1
f 35/4/1 31/4/1 30/4/1
f 36/4/1 27/4/1 31/4/1
f 36/4/1 31/4/1 35/4/1
f 37/4/1 33/4/1 32/4/1
f 38/4/1 33/4/1 37/4/1
f 39/4/1 37/4/1 36/4/1
f 40/4/1 37/4/1 39/4/1
f 45/5/1 42/5/1 41/5/1
f 46/5/1 42/5/1 45/5/1
f 47/5/1 42/5/1 46/5/1
f 48/5/1 42/5/1 47/5/1
f 50/3/1 44/3/1 43/3/1
f 51/3/1 44/3/1 50/3/1
f 52/4/1 49/4/1 48/4/1
f 53/4/1 49/4/1 52/4/1
f 56/4/1 55/4/1 54/4/1
f 57/4/1 55/4/1 56/4/1
f 63/4/1 59/4/1 58/4/1
f 64/4/1 59/4/1 63/4/1
f 65/4/1 61/4/1 60/4/1
f 66/4/1 61/4/1 65/4/1
f 67/4/1 63/4/1 62/4/1
f 68/4/1 63/4/1 67/4/1
f 71/1/1 70/1/1 69/1/1
f 72/1/1 70/1/1 71/1/1
f 75/4/1 74/4/1 73/4/1
f 76/4/1 74/4/1 75/4/1
f 79/3/1 78/3/1 77/3/1
f 80/3/1 78/3/1 79/3/1
f 83/4/1 82/4/1 81/4/1
f 84/4/1 82/4/1 83/4/1
f 87/4/1 86/4/1 85/4/1
f 88/4/1 86/4/1 87/4/1
f 90/4/1 89/4/1 88/4/1
f 91/4/1 89/4/1 90/4/1
f 94/4/1 93/4/1 92/4/1
f 95/4/1 93/4/1 94/4/1
f 96/4/2 97/4/2 98/4/2
f 98/4/2 97/4/2 99/4/2
f 100/4/2 101/4/2 102/4/2
f 102/4/2 101/4/2 103/4/2
f 104/3/2 105/3/2 106/3/2
f 106/3/2 105/3/2 107/3/2
f 108/1/2 109/1/2 110/1/2
f 110/1/2 109/1/2 111/1/2
f 112/4/2 113/4/2 114/4/2
f 114/4/2 113/4/2 115/4/2
f 115/4/2 116/4/2 119/4/2
f 119/4/2 116/4/2 120/4/2
f 117/4/2 118/4/2 122/4/2
f 122/4/2 118/4/2 123/4/2
f 121/4/2 122/4/2 124/4/2
f 124/4/2 122/4/2 125/4/2
f 126/5/2 127/5/2 130/5/2
f 130/5/2 127/5/2 131/5/2
f 131/5/2 127/5/2 132/5/2
f 132/5/2 127/5/2 133/5/2
f 128/3/2 129/3/2 135/3/2
f 135/3/2 129/3/2 136/3/2
f 133/4/2 134/4/2 137/4/2
f 137/4/2 134/4/2 138/4/2
f 138/4/2 139/4/2 140/4/2
f 140/4/2 139/4/2 141/4/2
f 142/4/2 143/4/2 144/4/2
f 144/4/2 143/4/2 145/4/2
f 146/5/2 147/5/2 148/5/2
f 146/5/2 148/5/2 150/5/2
f 148/4/2 149/4/2 150/4/2
f 150/4/2 149/4/2 151/4/2
f 146/5/2 150/5/2 153/5/2
f 153/5/2 150/5/2 154/5/2
f 146/5/2 153/5/2 156/5/2
f 156/5/2 153/5/2 157/5/2
f 151/4/2 152/4/2 158/4/2
f 158/4/2 152/4/2 159/4/2
f 155/4/2 156/4/2 161/4/2
f 161/4/2 156/4/2 162/4/2
f 159/4/2 160/4/2 165/4/2
f 165/4/2 160/4/2 166/4/2
f 162/4/2 163/4/2 167/4/2
f 167/4/2 163/4/2 168/4/2
f 164/4/2 165/4/2 169/4/2
f 169/4/2 165/4/2 170/4/2
f 168/4/2 169/4/2 171/4/2
f 171/4/2 169/4/2 172/4/2
f 173/5/2 174/5/2 176/5/2
f 175/4/2 176/4/2 178/4/2
f 176/5/2 174/5/2 179/5/2
f 178/4/2 176/4/2 179/4/2
f 179/5/2 174/5/2 180/5/2
f 177/4/2 178/4/2 182/4/2
f 180/4/2 181/4/2 182/4/2
f 179/4/2 180/4/2 182/4/2
f 178/4/2 179/4/2 182/4/2
f 182/4/2 181/4/2 183/4/2
f 183/4/2 181/4/2 184/4/2
f 184/4/2 181/4/2 185/4/2
f 183/4/2 184/4/2 186/4/2
f 186/4/2 184/4/2 187/4/2
f 192/3/3 189/3/3 188/3/3
f 193/3/3 189/3/3 192/3/3
f 194/3/3 189/3/3 193/3/3
f 197/3/3 194/3/3 193/3/3
f 198/1/3 195/1/3 194/1/3
f 198/3/3 194/3/3 197/3/3
f 199/1/3 195/1/3 198/1/3
f 200/4/3 191/4/3 190/4/3
f 201/4/3 191/4/3 200/4/3
f 202/3/3 197/3/3 196/3/3
f 202/3/3 198/3/3 197/3/3
f 203/3/3 198/3/3 202/3/3
f 206/4/3 205/4/3 204/4/3
f 207/4/3 205/4/3 206/4/3
f 211/4/3 209/4/3 208/4/3
f 212/4/3 209/4/3 211/4/3
f 214/5/3 211/5/3 210/5/3
f 215/5/3 211/5/3 214/5/3
f 216/5/3 211/5/3 215/5/3
f 217/4/3 213/4/3 212/4/3
f 217/5/3 211/5/3 216/5/3
f 217/4/3 212/4/3 211/4/3
f 218/4/3 213/4/3 217/4/3
f 219/4/3 213/4/3 218/4/3
f 222/5/3 216/5/3 215/5/3
f 223/3/3 217/3/3 216/3/3
f 223/5/3 216/5/3 222/5/3
f 224/3/3 217/3/3 223/3/3
f 227/5/3 221/5/3 220/5/3
f 228/5/3 221/5/3 227/5/3
f 230/1/3 224/1/3 223/1/3
f 231/1/3 224/1/3 230/1/3
f 232/4/3 226/4/3 225/4/3
f 233/4/3 226/4/3 232/4/3
f 235/5/3 230/5/3 229/5/3
f 236/3/3 231/3/3 230/3/3
f 236/5/3 230/5/3 235/5/3
f 237/4/3 232/4/3 231/4/3
f 237/3/3 231/3/3 236/3/3
f 238/4/3 232/4/3 237/4/3
f 240/5/3 235/5/3 234/5/3
f 240/5/3 236/5/3 235/5/3
f 240/5/3 237/5/3 236/5/3
f 241/5/3 237/5/3 240/5/3
f 242/4/3 239/4/3 238/4/3
f 243/4/3 239/4/3 242/4/3
f 244/4/3 242/4/3 241/4/3
f 245/4/3 242/4/3 244/4/3
f 248/4/3 247/4/3 246/4/3
f 249/4/3 247/4/3 248/4/3
f 255/4/3 253/4/3 252/4/3
f 255/4/3 254/4/3 253/4/3
f 256/4/3 254/4/3 255/4/3
f 258/4/3 254/4/3 256/4/3
f 259/5/3 251/5/3 250/5/3
f 260/5/3 251/5/3 259/5/3
f 261/4/3 258/4/3 257/4/3
f 262/4/3 254/4/3 258/4/3
f 262/4/3 258/4/3 261/4/3
f 263/4/3 254/4/3 262/4/3
f 266/4/3 265/4/3 264/4/3
f 267/4/3 265/4/3 266/4/3
f 272/5/3 269/5/3 268/5/3
f 273/5/3 269/5/3 272/5/3
f 274/4/3 271/4/3 270/4/3
f 275/4/3 271/4/3 274/4/3
f 277/4/3 276/4/3 275/4/3
f 278/4/3 276/4/3 277/4/3
f 284/4/3 280/4/3 279/4/3
f 285/4/3 280/4/3 284/4/3
f 286/5/3 282/5/3 281/5/3
f 287/5/3 282/5/3 286/5/3
f 288/4/3 284/4/3 283/4/3
f 289/4/3 284/4/3 288/4/3
f 290/4/4 291/4/4 292/4/4
f 292/4/4 291/4/4 293/4/4
f 294/5/4 295/5/4 296/5/4
f 296/5/4 295/5/4 297/5/4
f 298/4/4 299/4/4 302/4/4
f 302/4/4 299/4/4 303/4/4
f 300/5/4 301/5/4 304/5/4
f 304/5/4 301/5/4 305/5/4
f 306/5/4 307/5/4 311/5/4
f 311/5/4 307/5/4 312/5/4
f 308/4/4 309/4/4 313/4/4
f 313/4/4 309/4/4 314/4/4
f 310/4/4 311/4/4 317/4/4
f 317/4/4 311/4/4 318/4/4
f 314/4/4 315/4/4 319/4/4
f 319/4/4 315/4/4 320/4/4
f 316/5/4 317/5/4 321/5/4
f 321/5/4 317/5/4 322/5/4
f 322/4/4 323/4/4 326/4/4
f 326/4/4 323/4/4 327/4/4
f 324/4/4 325/4/4 330/4/4
f 330/4/4 325/4/4 331/4/4
f 327/5/4 328/5/4 332/5/4
f 332/5/4 328/5/4 333/5/4
f 329/4/4 330/4/4 334/4/4
f 334/4/4 330/4/4 335/4/4
f 336/4/4 337/4/4 338/4/4
f 338/4/4 337/4/4 339/4/4
f 339/4/4 340/4/4 344/4/4
f 344/4/4 340/4/4 345/4/4
f 342/4/4 343/4/4 347/4/4
f 341/4/4 342/4/4 347/4/4
f 347/4/4 343/4/4 348/4/4
f 345/4/4 346/4/4 350/4/4
f 350/4/4 346/4/4 351/4/4
f 341/4/4 347/4/4 352/4/4
f 352/4/4 347/4/4 353/4/4
f 353/4/4 354/4/4 355/4/4
f 355/4/4 354/4/4 356/4/4
f 349/4/4 350/4/4 357/4/4
f 357/4/4 350/4/4 358/4/4
f 356/4/4 357/4/4 359/4/4
f 359/4/4 357/4/4 360/4/4
f 361/4/4 362/4/4 363/4/4
f 363/4/4 362/4/4 364/4/4
f 364/4/4 362/4/4 365/4/4
f 365/4/4 366/4/4 368/4/4
f 364/4/4 365/4/4 368/4/4
f 368/4/4 366/4/4 369/4/4
f 369/4/4 366/4/4 370/4/4
f 367/4/4 368/4/4 371/4/4
f 368/4/4 369/4/4 371/4/4
f 371/4/4 369/4/4 372/4/4
f 372/4/4 369/4/4 373/4/4
f 373/4/4 369/4/4 374/4/4
f 377/5/5 376/5/5 375/5/5
f 378/5/5 376/5/5 377/5/5
f 384/3/5 380/3/5 379/3/5
f 385/3/5 380/3/5 384/3/5
f 386/3/5 382/3/5 381/3/5
f 387/3/5 382/3/5 386/3/5
f 389/5/5 385/5/5 384/5/5
f 389/5/5 388/5/5 387/5/5
f 389/5/5 387/5/5 386/5/5
f 389/5/5 386/5/5 385/5/5
f 389/5/5 384/5/5 383/5/5
f 390/5/5 388/5/5 389/5/5
f 391/5/5 389/5/5 383/5/5
f 392/5/5 389/5/5 391/5/5
f 393/5/5 388/5/5 390/5/5
f 394/5/5 388/5/5 393/5/5
f 397/3/5 396/3/5 395/3/5
f 398/3/5 396/3/5 397/3/5
f 403/4/5 400/4/5 399/4/5
f 404/4/5 400/4/5 403/4/5
f 405/4/5 402/4/5 401/4/5
f 406/4/5 402/4/5 405/4/5
f 407/4/5 405/4/5 404/4/5
f 408/4/5 405/4/5 407/4/5
f 413/5/5 410/5/5 409/5/5
f 414/5/5 410/5/5 413/5/5
f 417/5/5 412/5/5 411/5/5
f 418/5/5 412/5/5 417/5/5
f 419/4/5 415/4/5 414/4/5
f 421/4/5 417/4/5 416/4/5
f 422/4/5 417/4/5 421/4/5
f 423/4/5 419/4/5 414/4/5
f 424/4/5 419/4/5 423/4/5
f 425/4/5 421/4/5 420/4/5
f 426/4/5 421/4/5 425/4/5
f 431/4/5 428/4/5 427/4/5
f 432/4/5 428/4/5 431/4/5
f 433/4/5 430/4/5 429/4/5
f 434/4/5 430/4/5 433/4/5
f 437/4/5 436/4/5 435/4/5
f 438/4/5 436/4/5 437/4/5
f 445/4/5 440/4/5 439/4/5
f 446/4/5 440/4/5 445/4/5
f 447/4/5 440/4/5 446/4/5
f 448/4/5 442/4/5 441/4/5
f 449/4/5 442/4/5 448/4/5
f 451/4/5 444/4/5 443/4/5
f 452/4/5 444/4/5 451/4/5
f 453/4/5 450/4/5 449/4/5
f 454/4/5 450/4/5 453/4/5
f 459/4/5 456/4/5 455/4/5
f 460/4/5 456/4/5 459/4/5
f 462/4/5 458/4/5 457/4/5
f 463/4/5 458/4/5 462/4/5
f 464/4/5 462/4/5 461/4/5
f 465/4/5 462/4/5 464/4/5
f 466/3/6 467/3/6 470/3/6
f 470/3/6 467/3/6 471/3/6
f 468/3/6 469/3/6 472/3/6
f 472/3/6 469/3/6 473/3/6
f 474/1/6 475/1/6 476/1/6
f 476/1/6 475/1/6 477/1/6
f 478/4/6 479/4/6 480/4/6
f 480/4/6 479/4/6 481/4/6
f 482/4/6 483/4/6 488/4/6
f 488/4/6 483/4/6 489/4/6
f 489/4/6 483/4/6 490/4/6
f 484/4/6 485/4/6 491/4/6
f 491/4/6 485/4/6 492/4/6
f 486/4/6 487/4/6 494/4/6
f 494/4/6 487/4/6 495/4/6
f 488/4/6 489/4/6 496/4/6
f 496/4/6 489/4/6 497/4/6
f 490/4/6 491/4/6 498/4/6
f 498/4/6 491/4/6 499/4/6
f 492/4/6 493/4/6 500/4/6
f 500/4/6 493/4/6 501/4/6
f 502/4/6 503/4/6 506/4/6
f 506/4/6 503/4/6 507/4/6
f 504/4/6 505/4/6 510/4/6
f 510/4/6 505/4/6 511/4/6
f 507/4/6 508/4/6 512/4/6
f 512/4/6 508/4/6 513/4/6
f 509/4/6 510/4/6 514/4/6
f 514/4/6 510/4/6 515/4/6
f 516/4/6 517/4/6 522/4/6
f 518/4/6 519/4/6 523/4/6
f 523/4/6 519/4/6 524/4/6
f 520/4/6 521/4/6 525/4/6
f 516/4/6 522/4/6 527/4/6
f 527/4/6 522/4/6 528/4/6
f 525/4/6 521/4/6 530/4/6
f 530/4/6 521/4/6 531/4/6
f 526/4/6 527/4/6 533/4/6
f 533/4/6 527/4/6 534/4/6
f 529/4/6 530/4/6 536/4/6
f 531/4/6 532/4/6 537/4/6
f 537/4/6 532/4/6 538/4/6
f 534/4/6 535/4/6 539/4/6
f 539/4/6 535/4/6 540/4/6
f 529/4/6 536/4/6 541/4/6
f 536/4/6 537/4/6 541/4/6
f 541/4/6 537/4/6 542/4/6
f 540/4/6 541/4/6 543/4/6
f 543/4/6 541/4/6 544/4/6
f 545/4/6 546/4/6 548/4/6
f 548/4/6 546/4/6 549/4/6
f 549/4/6 546/4/6 550/4/6
f 547/4/6 548/4/6 552/4/6
f 548/4/6 549/4/6 552/4/6
f 552/4/6 549/4/6 553/4/6
f 550/4/6 551/4/6 554/4/6
f 554/4/6 551/4/6 555/4/6
f 553/4/6 549/4/6 556/4/6
f 556/4/6 549/4/6 557/4/6
