# MagicaVoxel @ Ephtracy

# group
o 

# material
mtllib Propuesta2-0.mtl
usemtl palette

# normals
vn -1 0 0
vn 1 0 0
vn 0 0 1
vn 0 0 -1
vn 0 -1 0
vn 0 1 0

# texcoords
vt 0.146484 0.5
vt 0.974609 0.5

# verts
v 5.1 0.1 0
v 5.1 0.1 -0.1
v 5.1 0.2 -0.1
v 5.1 0.2 -0.2
v 5.1 0.9 0
v 5.1 0.9 -0.2
v 5.2 0 0
v 5.2 0 -0.1
v 5.2 0.1 0.2
v 5.2 0.1 0.1
v 5.2 0.1 0
v 5.2 0.1 -0.1
v 5.2 0.2 0.1
v 5.2 0.2 0
v 5.2 0.3 0.2
v 5.2 0.3 0
v 5.2 0.9 0
v 5.2 0.9 -0.2
v 5.2 1 0
v 5.2 1 -0.2
v 5.4 0.4 -0.1
v 5.4 0.4 -0.2
v 5.4 0.5 -0.1
v 5.4 0.5 -0.2
v 5.4 0.6 -0.1
v 5.4 0.6 -0.2
v 5.4 0.7 -0.1
v 5.4 0.7 -0.2
v 5.2 0.4 -0.1
v 5.2 0.4 -0.2
v 5.2 0.5 -0.1
v 5.2 0.5 -0.2
v 5.2 0.6 -0.1
v 5.2 0.6 -0.2
v 5.2 0.7 -0.1
v 5.2 0.7 -0.2
v 5.4 0 0
v 5.4 0 -0.1
v 5.4 0.1 0.2
v 5.4 0.1 0.1
v 5.4 0.1 0
v 5.4 0.1 -0.1
v 5.4 0.2 0.1
v 5.4 0.2 0
v 5.4 0.3 0.2
v 5.4 0.3 0
v 5.4 0.9 0
v 5.4 0.9 -0.2
v 5.4 1 0
v 5.4 1 -0.2
v 5.5 0.1 0
v 5.5 0.1 -0.1
v 5.5 0.2 -0.1
v 5.5 0.2 -0.2
v 5.5 0.9 0
v 5.5 0.9 -0.2
v 5.2 0.1 0.2
v 5.2 0.3 0.2
v 5.4 0.1 0.2
v 5.4 0.3 0.2
v 5.1 0.1 0
v 5.1 0.9 0
v 5.2 0 0
v 5.2 0.1 0
v 5.2 0.2 0
v 5.2 0.3 0
v 5.2 0.9 0
v 5.2 1 0
v 5.4 0 0
v 5.4 0.1 0
v 5.4 0.2 0
v 5.4 0.3 0
v 5.4 0.9 0
v 5.4 1 0
v 5.5 0.1 0
v 5.5 0.9 0
v 5.2 0.1 0.1
v 5.2 0.2 0.1
v 5.4 0.1 0.1
v 5.4 0.2 0.1
v 5.1 0.1 -0.1
v 5.1 0.2 -0.1
v 5.2 0 -0.1
v 5.2 0.1 -0.1
v 5.2 0.4 -0.1
v 5.2 0.5 -0.1
v 5.2 0.6 -0.1
v 5.2 0.7 -0.1
v 5.4 0 -0.1
v 5.4 0.1 -0.1
v 5.4 0.4 -0.1
v 5.4 0.5 -0.1
v 5.4 0.6 -0.1
v 5.4 0.7 -0.1
v 5.5 0.1 -0.1
v 5.5 0.2 -0.1
v 5.1 0.2 -0.2
v 5.1 0.9 -0.2
v 5.2 0.4 -0.2
v 5.2 0.5 -0.2
v 5.2 0.6 -0.2
v 5.2 0.7 -0.2
v 5.2 0.9 -0.2
v 5.2 1 -0.2
v 5.4 0.4 -0.2
v 5.4 0.5 -0.2
v 5.4 0.6 -0.2
v 5.4 0.7 -0.2
v 5.4 0.9 -0.2
v 5.4 1 -0.2
v 5.5 0.2 -0.2
v 5.5 0.9 -0.2
v 5.2 0 0
v 5.4 0 0
v 5.2 0 -0.1
v 5.4 0 -0.1
v 5.2 0.1 0.2
v 5.4 0.1 0.2
v 5.2 0.1 0.1
v 5.4 0.1 0.1
v 5.1 0.1 0
v 5.2 0.1 0
v 5.4 0.1 0
v 5.5 0.1 0
v 5.1 0.1 -0.1
v 5.2 0.1 -0.1
v 5.4 0.1 -0.1
v 5.5 0.1 -0.1
v 5.2 0.2 0.1
v 5.4 0.2 0.1
v 5.2 0.2 0
v 5.4 0.2 0
v 5.1 0.2 -0.1
v 5.5 0.2 -0.1
v 5.1 0.2 -0.2
v 5.5 0.2 -0.2
v 5.2 0.5 -0.1
v 5.4 0.5 -0.1
v 5.2 0.5 -0.2
v 5.4 0.5 -0.2
v 5.2 0.7 -0.1
v 5.4 0.7 -0.1
v 5.2 0.7 -0.2
v 5.4 0.7 -0.2
v 5.2 0.3 0.2
v 5.4 0.3 0.2
v 5.2 0.3 0
v 5.4 0.3 0
v 5.2 0.4 -0.1
v 5.4 0.4 -0.1
v 5.2 0.4 -0.2
v 5.4 0.4 -0.2
v 5.2 0.6 -0.1
v 5.4 0.6 -0.1
v 5.2 0.6 -0.2
v 5.4 0.6 -0.2
v 5.1 0.9 0
v 5.2 0.9 0
v 5.4 0.9 0
v 5.5 0.9 0
v 5.1 0.9 -0.2
v 5.2 0.9 -0.2
v 5.4 0.9 -0.2
v 5.5 0.9 -0.2
v 5.2 1 0
v 5.4 1 0
v 5.2 1 -0.2
v 5.4 1 -0.2

# faces
f 3/2/1 2/2/1 1/2/1
f 5/2/1 3/2/1 1/2/1
f 5/2/1 4/2/1 3/2/1
f 6/2/1 4/2/1 5/2/1
f 11/2/1 8/2/1 7/2/1
f 12/2/1 8/2/1 11/2/1
f 13/2/1 10/2/1 9/2/1
f 15/2/1 13/2/1 9/2/1
f 15/2/1 14/2/1 13/2/1
f 16/2/1 14/2/1 15/2/1
f 19/1/1 18/1/1 17/1/1
f 20/1/1 18/1/1 19/1/1
f 23/2/1 22/2/1 21/2/1
f 24/2/1 22/2/1 23/2/1
f 27/2/1 26/2/1 25/2/1
f 28/2/1 26/2/1 27/2/1
f 29/2/2 30/2/2 31/2/2
f 31/2/2 30/2/2 32/2/2
f 33/2/2 34/2/2 35/2/2
f 35/2/2 34/2/2 36/2/2
f 37/2/2 38/2/2 41/2/2
f 41/2/2 38/2/2 42/2/2
f 39/2/2 40/2/2 43/2/2
f 39/2/2 43/2/2 45/2/2
f 43/2/2 44/2/2 45/2/2
f 45/2/2 44/2/2 46/2/2
f 47/1/2 48/1/2 49/1/2
f 49/1/2 48/1/2 50/1/2
f 51/2/2 52/2/2 53/2/2
f 51/2/2 53/2/2 55/2/2
f 53/2/2 54/2/2 55/2/2
f 55/2/2 54/2/2 56/2/2
f 59/2/3 58/2/3 57/2/3
f 60/2/3 58/2/3 59/2/3
f 64/2/3 62/2/3 61/2/3
f 65/2/3 62/2/3 64/2/3
f 66/2/3 62/2/3 65/2/3
f 67/2/3 62/2/3 66/2/3
f 69/2/3 64/2/3 63/2/3
f 69/2/3 65/2/3 64/2/3
f 70/2/3 65/2/3 69/2/3
f 71/2/3 65/2/3 70/2/3
f 72/2/3 67/2/3 66/2/3
f 73/1/3 68/1/3 67/1/3
f 73/2/3 67/2/3 72/2/3
f 74/1/3 68/1/3 73/1/3
f 75/2/3 72/2/3 71/2/3
f 75/2/3 71/2/3 70/2/3
f 75/2/3 73/2/3 72/2/3
f 76/2/3 73/2/3 75/2/3
f 77/2/4 78/2/4 79/2/4
f 79/2/4 78/2/4 80/2/4
f 81/2/4 82/2/4 84/2/4
f 83/2/4 84/2/4 89/2/4
f 84/2/4 82/2/4 90/2/4
f 89/2/4 84/2/4 90/2/4
f 85/2/4 86/2/4 91/2/4
f 91/2/4 86/2/4 92/2/4
f 87/2/4 88/2/4 93/2/4
f 93/2/4 88/2/4 94/2/4
f 90/2/4 82/2/4 95/2/4
f 95/2/4 82/2/4 96/2/4
f 97/2/4 98/2/4 99/2/4
f 99/2/4 98/2/4 100/2/4
f 100/2/4 98/2/4 101/2/4
f 101/2/4 98/2/4 102/2/4
f 102/2/4 98/2/4 103/2/4
f 97/2/4 99/2/4 105/2/4
f 100/2/4 101/2/4 106/2/4
f 106/2/4 101/2/4 107/2/4
f 102/2/4 103/2/4 108/2/4
f 103/1/4 104/1/4 109/1/4
f 108/2/4 103/2/4 109/2/4
f 109/1/4 104/1/4 110/1/4
f 107/2/4 108/2/4 111/2/4
f 106/2/4 107/2/4 111/2/4
f 108/2/4 109/2/4 111/2/4
f 97/2/4 105/2/4 111/2/4
f 105/2/4 106/2/4 111/2/4
f 111/2/4 109/2/4 112/2/4
f 115/2/5 114/2/5 113/2/5
f 116/2/5 114/2/5 115/2/5
f 119/2/5 118/2/5 117/2/5
f 120/2/5 118/2/5 119/2/5
f 125/2/5 122/2/5 121/2/5
f 126/2/5 122/2/5 125/2/5
f 127/2/5 124/2/5 123/2/5
f 128/2/5 124/2/5 127/2/5
f 131/2/5 130/2/5 129/2/5
f 132/2/5 130/2/5 131/2/5
f 135/2/5 134/2/5 133/2/5
f 136/2/5 134/2/5 135/2/5
f 139/2/5 138/2/5 137/2/5
f 140/2/5 138/2/5 139/2/5
f 143/2/5 142/2/5 141/2/5
f 144/2/5 142/2/5 143/2/5
f 145/2/6 146/2/6 147/2/6
f 147/2/6 146/2/6 148/2/6
f 149/2/6 150/2/6 151/2/6
f 151/2/6 150/2/6 152/2/6
f 153/2/6 154/2/6 155/2/6
f 155/2/6 154/2/6 156/2/6
f 157/2/6 158/2/6 161/2/6
f 161/2/6 158/2/6 162/2/6
f 159/2/6 160/2/6 163/2/6
f 163/2/6 160/2/6 164/2/6
f 165/1/6 166/1/6 167/1/6
f 167/1/6 166/1/6 168/1/6
