# MagicaVoxel @ Ephtracy

# group
o 

# material
mtllib beach5.mtl
usemtl palette

# normals
vn -1 0 0
vn 1 0 0
vn 0 0 1
vn 0 0 -1
vn 0 -1 0
vn 0 1 0

# texcoords
vt 0.970703 0.5
vt 0.974609 0.5
vt 0.978516 0.5
vt 0.986328 0.5

# verts
v 2.8 9.1 -4.2
v 2.8 9.1 -4.3
v 2.8 9.3 -4.2
v 2.8 9.3 -4.3
v 2.8 9.8 -4.2
v 2.8 9.8 -4.3
v 2.8 9.9 -4.2
v 2.8 9.9 -4.3
v 2.8 10.3 -4.2
v 2.8 10.3 -4.3
v 2.8 10.9 -4.2
v 2.8 10.9 -4.3
v 2.8 11 -4.2
v 2.8 11 -4.3
v 2.9 9.1 -4.3
v 2.9 9.1 -6
v 2.9 9.3 -4.3
v 2.9 9.3 -5.4
v 2.9 9.3 -6
v 2.9 9.4 -5.3
v 2.9 9.4 -5.4
v 2.9 9.7 -5.3
v 2.9 9.7 -5.4
v 2.9 9.8 -4.3
v 2.9 9.8 -5.4
v 2.9 9.8 -6
v 2.9 9.9 -4.3
v 2.9 9.9 -5.3
v 2.9 9.9 -6
v 2.9 10.1 -5.3
v 2.9 10.1 -6
v 2.9 10.3 -4.3
v 2.9 10.9 -4.3
v 2.9 11 -4.3
v 2.9 11 -6
v 3.2 9.1 -4.2
v 3.2 9.1 -4.3
v 3.2 10.7 -4.3
v 3.2 11 -4.2
v 3.2 11 -4.3
v 3.6 9.1 -4.3
v 3.6 9.1 -4.4
v 3.6 9.1 -6
v 3.6 9.2 -5.9
v 3.6 9.2 -6
v 3.6 9.3 -5.7
v 3.6 9.3 -5.9
v 3.6 9.4 -4.3
v 3.6 9.4 -4.4
v 3.6 9.4 -5.5
v 3.6 9.4 -5.7
v 3.6 9.5 -5.3
v 3.6 9.5 -5.5
v 3.6 9.6 -4.3
v 3.6 9.6 -4.4
v 3.6 9.6 -5.1
v 3.6 9.6 -5.3
v 3.6 9.7 -4.9
v 3.6 9.7 -5.1
v 3.6 9.7 -5.4
v 3.6 9.7 -5.5
v 3.6 9.7 -5.9
v 3.6 9.7 -6
v 3.6 9.8 -4.7
v 3.6 9.8 -4.9
v 3.6 9.8 -5.4
v 3.6 9.8 -5.5
v 3.6 9.8 -5.7
v 3.6 9.8 -5.9
v 3.6 9.9 -4.5
v 3.6 9.9 -4.7
v 3.6 9.9 -5.1
v 3.6 9.9 -5.2
v 3.6 9.9 -5.6
v 3.6 9.9 -5.7
v 3.6 10 -4.4
v 3.6 10 -4.5
v 3.6 10 -4.9
v 3.6 10 -5.1
v 3.6 10 -5.2
v 3.6 10 -5.4
v 3.6 10 -5.6
v 3.6 10.1 -4.8
v 3.6 10.1 -4.9
v 3.6 10.1 -5.1
v 3.6 10.1 -5.3
v 3.6 10.1 -5.4
v 3.6 10.2 -4.3
v 3.6 10.2 -4.4
v 3.6 10.2 -4.6
v 3.6 10.2 -4.8
v 3.6 10.2 -4.9
v 3.6 10.2 -5.2
v 3.6 10.2 -5.3
v 3.6 10.3 -4.4
v 3.6 10.3 -4.6
v 3.6 10.3 -4.8
v 3.6 10.3 -5
v 3.6 10.3 -5.2
v 3.6 10.4 -4.5
v 3.6 10.4 -4.6
v 3.6 10.4 -4.9
v 3.6 10.4 -5
v 3.6 10.5 -4.3
v 3.6 10.5 -4.4
v 3.6 10.5 -4.5
v 3.6 10.5 -4.7
v 3.6 10.5 -4.9
v 3.6 10.6 -4.6
v 3.6 10.6 -4.7
v 3.6 10.7 -4.4
v 3.6 10.7 -4.6
v 3.6 10.7 -4.8
v 3.6 10.8 -4.4
v 3.6 10.8 -4.6
v 3.6 10.9 -4.7
v 3.6 10.9 -4.8
v 3.6 11 -4.3
v 3.6 11 -4.4
v 3.6 11 -4.7
v 3.6 11 -6
v 2.8 9.1 -4.2
v 2.8 9.3 -4.2
v 2.8 9.8 -4.2
v 2.8 9.9 -4.2
v 2.8 10.3 -4.2
v 2.8 10.9 -4.2
v 2.8 11 -4.2
v 2.9 9.2 -4.2
v 2.9 9.3 -4.2
v 2.9 9.8 -4.2
v 2.9 9.9 -4.2
v 2.9 10.5 -4.2
v 2.9 10.7 -4.2
v 2.9 10.9 -4.2
v 2.9 11 -4.2
v 3 9.1 -4.2
v 3 9.2 -4.2
v 3 10.3 -4.2
v 3 10.5 -4.2
v 3 10.7 -4.2
v 3.2 9.1 -4.2
v 3.2 11 -4.2
v 3.2 9.1 -4.3
v 3.2 10.7 -4.3
v 3.2 11 -4.3
v 3.3 10.7 -4.3
v 3.3 11 -4.3
v 3.5 9.4 -4.3
v 3.5 9.6 -4.3
v 3.5 10.2 -4.3
v 3.5 10.5 -4.3
v 3.6 9.1 -4.3
v 3.6 9.4 -4.3
v 3.6 9.6 -4.3
v 3.6 10.2 -4.3
v 3.6 10.5 -4.3
v 3.6 11 -4.3
v 2.8 9.1 -4.3
v 2.8 9.3 -4.3
v 2.8 9.8 -4.3
v 2.8 9.9 -4.3
v 2.8 10.3 -4.3
v 2.8 10.9 -4.3
v 2.8 11 -4.3
v 2.9 9.1 -4.3
v 2.9 9.3 -4.3
v 2.9 9.8 -4.3
v 2.9 9.9 -4.3
v 2.9 10.3 -4.3
v 2.9 10.9 -4.3
v 2.9 11 -4.3
v 2.9 9.1 -6
v 2.9 9.3 -6
v 2.9 9.8 -6
v 2.9 9.9 -6
v 2.9 10.1 -6
v 2.9 11 -6
v 3 9.3 -6
v 3 9.8 -6
v 3 9.9 -6
v 3 10.1 -6
v 3.5 9.2 -6
v 3.5 9.7 -6
v 3.6 9.1 -6
v 3.6 9.2 -6
v 3.6 9.7 -6
v 3.6 11 -6
v 2.8 9.1 -4.2
v 3 9.1 -4.2
v 3.2 9.1 -4.2
v 2.8 9.1 -4.3
v 2.9 9.1 -4.3
v 3 9.1 -4.3
v 3.1 9.1 -4.3
v 3.2 9.1 -4.3
v 3.6 9.1 -4.3
v 3.1 9.1 -4.4
v 3.6 9.1 -4.4
v 2.9 9.1 -6
v 3.6 9.1 -6
v 2.8 11 -4.2
v 2.9 11 -4.2
v 3.2 11 -4.2
v 2.8 11 -4.3
v 2.9 11 -4.3
v 3.1 11 -4.3
v 3.2 11 -4.3
v 3.3 11 -4.3
v 3.6 11 -4.3
v 3.1 11 -4.4
v 3.3 11 -4.4
v 3.5 11 -4.4
v 3.6 11 -4.4
v 3.5 11 -4.7
v 3.6 11 -4.7
v 2.9 11 -6
v 3.6 11 -6

# faces
f 3/2/1 2/2/1 1/2/1
f 4/2/1 2/2/1 3/2/1
f 5/4/1 4/4/1 3/4/1
f 6/4/1 4/4/1 5/4/1
f 7/2/1 6/2/1 5/2/1
f 8/2/1 6/2/1 7/2/1
f 9/4/1 8/4/1 7/4/1
f 10/4/1 8/4/1 9/4/1
f 11/2/1 10/2/1 9/2/1
f 12/2/1 10/2/1 11/2/1
f 13/1/1 12/1/1 11/1/1
f 14/1/1 12/1/1 13/1/1
f 17/3/1 16/3/1 15/3/1
f 18/3/1 16/3/1 17/3/1
f 19/3/1 16/3/1 18/3/1
f 20/3/1 18/3/1 17/3/1
f 21/4/1 19/4/1 18/4/1
f 21/3/1 18/3/1 20/3/1
f 22/3/1 20/3/1 17/3/1
f 22/4/1 21/4/1 20/4/1
f 23/4/1 19/4/1 21/4/1
f 23/4/1 21/4/1 22/4/1
f 24/3/1 22/3/1 17/3/1
f 24/3/1 23/3/1 22/3/1
f 25/4/1 19/4/1 23/4/1
f 25/3/1 23/3/1 24/3/1
f 26/4/1 19/4/1 25/4/1
f 27/3/1 25/3/1 24/3/1
f 27/3/1 26/3/1 25/3/1
f 28/3/1 26/3/1 27/3/1
f 29/3/1 26/3/1 28/3/1
f 30/3/1 28/3/1 27/3/1
f 30/4/1 29/4/1 28/4/1
f 31/4/1 29/4/1 30/4/1
f 32/3/1 30/3/1 27/3/1
f 32/3/1 31/3/1 30/3/1
f 33/3/1 31/3/1 32/3/1
f 34/3/1 31/3/1 33/3/1
f 35/3/1 31/3/1 34/3/1
f 36/4/2 37/4/2 38/4/2
f 36/4/2 38/4/2 39/4/2
f 39/4/2 38/4/2 40/4/2
f 42/3/2 43/3/2 44/3/2
f 44/3/2 43/3/2 45/3/2
f 42/3/2 44/3/2 46/3/2
f 44/2/2 45/2/2 47/2/2
f 46/3/2 44/3/2 47/3/2
f 41/4/2 42/4/2 48/4/2
f 42/3/2 46/3/2 49/3/2
f 48/4/2 42/4/2 49/4/2
f 49/3/2 46/3/2 50/3/2
f 46/2/2 47/2/2 51/2/2
f 50/3/2 46/3/2 51/3/2
f 49/3/2 50/3/2 52/3/2
f 50/2/2 51/2/2 53/2/2
f 52/3/2 50/3/2 53/3/2
f 48/2/2 49/2/2 54/2/2
f 49/3/2 52/3/2 55/3/2
f 54/2/2 49/2/2 55/2/2
f 55/3/2 52/3/2 56/3/2
f 52/2/2 53/2/2 57/2/2
f 56/3/2 52/3/2 57/3/2
f 55/3/2 56/3/2 58/3/2
f 56/2/2 57/2/2 59/2/2
f 58/3/2 56/3/2 59/3/2
f 57/2/2 53/2/2 60/2/2
f 59/2/2 57/2/2 60/2/2
f 53/2/2 51/2/2 61/2/2
f 60/2/2 53/2/2 61/2/2
f 47/2/2 45/2/2 62/2/2
f 61/2/2 51/2/2 62/2/2
f 51/2/2 47/2/2 62/2/2
f 62/2/2 45/2/2 63/2/2
f 55/3/2 58/3/2 64/3/2
f 59/2/2 60/2/2 65/2/2
f 64/3/2 58/3/2 65/3/2
f 58/2/2 59/2/2 65/2/2
f 60/3/2 61/3/2 66/3/2
f 65/2/2 60/2/2 66/2/2
f 61/2/2 62/2/2 67/2/2
f 66/3/2 61/3/2 67/3/2
f 67/2/2 62/2/2 68/2/2
f 62/3/2 63/3/2 69/3/2
f 68/2/2 62/2/2 69/2/2
f 55/3/2 64/3/2 70/3/2
f 64/2/2 65/2/2 71/2/2
f 70/3/2 64/3/2 71/3/2
f 67/2/2 68/2/2 71/2/2
f 65/2/2 66/2/2 71/2/2
f 66/2/2 67/2/2 71/2/2
f 71/2/2 68/2/2 72/2/2
f 72/2/2 68/2/2 73/2/2
f 73/2/2 68/2/2 74/2/2
f 68/3/2 69/3/2 75/3/2
f 74/2/2 68/2/2 75/2/2
f 55/3/2 70/3/2 76/3/2
f 54/4/2 55/4/2 76/4/2
f 70/2/2 71/2/2 77/2/2
f 76/3/2 70/3/2 77/3/2
f 71/2/2 72/2/2 77/2/2
f 77/2/2 72/2/2 78/2/2
f 72/3/2 73/3/2 79/3/2
f 78/2/2 72/2/2 79/2/2
f 73/2/2 74/2/2 80/2/2
f 79/3/2 73/3/2 80/3/2
f 80/2/2 74/2/2 81/2/2
f 74/3/2 75/3/2 82/3/2
f 81/2/2 74/2/2 82/2/2
f 77/2/2 78/2/2 83/2/2
f 76/2/2 77/2/2 83/2/2
f 78/3/2 79/3/2 84/3/2
f 83/2/2 78/2/2 84/2/2
f 80/2/2 81/2/2 85/2/2
f 84/3/2 79/3/2 85/3/2
f 79/2/2 80/2/2 85/2/2
f 85/2/2 81/2/2 86/2/2
f 81/3/2 82/3/2 87/3/2
f 86/2/2 81/2/2 87/2/2
f 54/4/2 76/4/2 88/4/2
f 76/2/2 83/2/2 89/2/2
f 88/4/2 76/4/2 89/4/2
f 89/2/2 83/2/2 90/2/2
f 83/3/2 84/3/2 91/3/2
f 90/2/2 83/2/2 91/2/2
f 85/2/2 86/2/2 92/2/2
f 91/3/2 84/3/2 92/3/2
f 84/2/2 85/2/2 92/2/2
f 92/2/2 86/2/2 93/2/2
f 86/3/2 87/3/2 94/3/2
f 93/2/2 86/2/2 94/2/2
f 89/2/2 90/2/2 95/2/2
f 88/2/2 89/2/2 95/2/2
f 90/3/2 91/3/2 96/3/2
f 95/2/2 90/2/2 96/2/2
f 92/2/2 93/2/2 97/2/2
f 96/3/2 91/3/2 97/3/2
f 91/2/2 92/2/2 97/2/2
f 97/2/2 93/2/2 98/2/2
f 93/3/2 94/3/2 99/3/2
f 98/2/2 93/2/2 99/2/2
f 95/3/2 96/3/2 100/3/2
f 97/2/2 98/2/2 101/2/2
f 100/3/2 96/3/2 101/3/2
f 96/2/2 97/2/2 101/2/2
f 101/2/2 98/2/2 102/2/2
f 98/3/2 99/3/2 103/3/2
f 102/2/2 98/2/2 103/2/2
f 88/2/2 95/2/2 104/2/2
f 95/3/2 100/3/2 105/3/2
f 104/2/2 95/2/2 105/2/2
f 101/2/2 102/2/2 106/2/2
f 105/3/2 100/3/2 106/3/2
f 100/2/2 101/2/2 106/2/2
f 106/2/2 102/2/2 107/2/2
f 102/3/2 103/3/2 108/3/2
f 107/2/2 102/2/2 108/2/2
f 106/2/2 107/2/2 109/2/2
f 105/2/2 106/2/2 109/2/2
f 107/3/2 108/3/2 110/3/2
f 109/2/2 107/2/2 110/2/2
f 104/4/2 105/4/2 111/4/2
f 105/2/2 109/2/2 111/2/2
f 109/3/2 110/3/2 112/3/2
f 111/2/2 109/2/2 112/2/2
f 110/3/2 108/3/2 113/3/2
f 112/3/2 110/3/2 113/3/2
f 111/3/2 112/3/2 114/3/2
f 104/4/2 111/4/2 114/4/2
f 112/2/2 113/2/2 115/2/2
f 114/3/2 112/3/2 115/3/2
f 114/2/2 115/2/2 116/2/2
f 115/2/2 113/2/2 116/2/2
f 113/3/2 108/3/2 117/3/2
f 116/2/2 113/2/2 117/2/2
f 104/4/2 114/4/2 118/4/2
f 114/2/2 116/2/2 119/2/2
f 118/4/2 114/4/2 119/4/2
f 116/3/2 117/3/2 120/3/2
f 119/2/2 116/2/2 120/2/2
f 75/3/2 69/3/2 121/3/2
f 120/3/2 117/3/2 121/3/2
f 69/3/2 63/3/2 121/3/2
f 94/3/2 87/3/2 121/3/2
f 117/3/2 108/3/2 121/3/2
f 108/3/2 103/3/2 121/3/2
f 87/3/2 82/3/2 121/3/2
f 99/3/2 94/3/2 121/3/2
f 82/3/2 75/3/2 121/3/2
f 103/3/2 99/3/2 121/3/2
f 129/2/3 123/2/3 122/2/3
f 130/4/3 124/4/3 123/4/3
f 130/2/3 123/2/3 129/2/3
f 131/2/3 125/2/3 124/2/3
f 131/4/3 124/4/3 130/4/3
f 132/4/3 126/4/3 125/4/3
f 132/2/3 125/2/3 131/2/3
f 133/2/3 127/2/3 126/2/3
f 134/2/3 127/2/3 133/2/3
f 135/1/3 128/1/3 127/1/3
f 135/2/3 127/2/3 134/2/3
f 136/1/3 128/1/3 135/1/3
f 137/2/3 129/2/3 122/2/3
f 138/4/3 130/4/3 129/4/3
f 138/2/3 129/2/3 137/2/3
f 138/4/3 131/4/3 130/4/3
f 138/4/3 132/4/3 131/4/3
f 139/4/3 126/4/3 132/4/3
f 139/4/3 132/4/3 138/4/3
f 139/2/3 133/2/3 126/2/3
f 140/1/3 134/1/3 133/1/3
f 140/2/3 133/2/3 139/2/3
f 141/4/3 136/4/3 135/4/3
f 141/1/3 134/1/3 140/1/3
f 141/4/3 135/4/3 134/4/3
f 142/4/3 139/4/3 138/4/3
f 142/4/3 140/4/3 139/4/3
f 142/4/3 141/4/3 140/4/3
f 142/4/3 138/4/3 137/4/3
f 143/4/3 136/4/3 141/4/3
f 143/4/3 141/4/3 142/4/3
f 147/4/3 145/4/3 144/4/3
f 147/2/3 146/2/3 145/2/3
f 148/2/3 146/2/3 147/2/3
f 149/4/3 147/4/3 144/4/3
f 149/4/3 148/4/3 147/4/3
f 150/4/3 148/4/3 149/4/3
f 151/4/3 148/4/3 150/4/3
f 152/4/3 148/4/3 151/4/3
f 153/4/3 149/4/3 144/4/3
f 154/2/3 150/2/3 149/2/3
f 154/4/3 149/4/3 153/4/3
f 155/4/3 151/4/3 150/4/3
f 155/2/3 150/2/3 154/2/3
f 156/2/3 152/2/3 151/2/3
f 156/4/3 151/4/3 155/4/3
f 157/4/3 148/4/3 152/4/3
f 157/2/3 152/2/3 156/2/3
f 158/4/3 148/4/3 157/4/3
f 159/2/4 160/2/4 166/2/4
f 160/4/4 161/4/4 167/4/4
f 166/2/4 160/2/4 167/2/4
f 161/2/4 162/2/4 168/2/4
f 167/4/4 161/4/4 168/4/4
f 162/4/4 163/4/4 169/4/4
f 168/2/4 162/2/4 169/2/4
f 163/2/4 164/2/4 170/2/4
f 169/4/4 163/4/4 170/4/4
f 164/1/4 165/1/4 171/1/4
f 170/2/4 164/2/4 171/2/4
f 171/1/4 165/1/4 172/1/4
f 173/3/4 174/3/4 179/3/4
f 174/4/4 175/4/4 179/4/4
f 175/3/4 176/3/4 180/3/4
f 179/4/4 175/4/4 180/4/4
f 176/4/4 177/4/4 181/4/4
f 180/3/4 176/3/4 181/3/4
f 177/3/4 178/3/4 182/3/4
f 181/4/4 177/4/4 182/4/4
f 180/3/4 181/3/4 183/3/4
f 179/3/4 180/3/4 183/3/4
f 181/3/4 182/3/4 183/3/4
f 173/3/4 179/3/4 183/3/4
f 183/3/4 182/3/4 184/3/4
f 173/3/4 183/3/4 185/3/4
f 183/2/4 184/2/4 186/2/4
f 185/3/4 183/3/4 186/3/4
f 184/3/4 182/3/4 187/3/4
f 186/2/4 184/2/4 187/2/4
f 182/3/4 178/3/4 188/3/4
f 187/3/4 182/3/4 188/3/4
f 192/2/5 190/2/5 189/2/5
f 193/2/5 190/2/5 192/2/5
f 194/4/5 191/4/5 190/4/5
f 194/2/5 190/2/5 193/2/5
f 195/4/5 191/4/5 194/4/5
f 196/4/5 191/4/5 195/4/5
f 198/4/5 197/4/5 196/4/5
f 198/4/5 196/4/5 195/4/5
f 198/3/5 195/3/5 194/3/5
f 198/3/5 194/3/5 193/3/5
f 199/4/5 197/4/5 198/4/5
f 200/3/5 198/3/5 193/3/5
f 200/3/5 199/3/5 198/3/5
f 201/3/5 199/3/5 200/3/5
f 202/1/6 203/1/6 205/1/6
f 203/4/6 204/4/6 206/4/6
f 205/1/6 203/1/6 206/1/6
f 206/4/6 204/4/6 207/4/6
f 207/4/6 204/4/6 208/4/6
f 206/3/6 207/3/6 211/3/6
f 208/2/6 209/2/6 211/2/6
f 207/2/6 208/2/6 211/2/6
f 209/4/6 210/4/6 212/4/6
f 211/2/6 209/2/6 212/2/6
f 212/4/6 210/4/6 213/4/6
f 213/4/6 210/4/6 214/4/6
f 211/3/6 212/3/6 215/3/6
f 212/3/6 213/3/6 215/3/6
f 213/2/6 214/2/6 215/2/6
f 215/2/6 214/2/6 216/2/6
f 206/3/6 211/3/6 217/3/6
f 211/3/6 215/3/6 217/3/6
f 215/3/6 216/3/6 217/3/6
f 217/3/6 216/3/6 218/3/6
