# MagicaVoxel @ Ephtracy

# group
o 

# material
mtllib cabeza.mtl
usemtl palette

# normals
vn -1 0 0
vn 1 0 0
vn 0 0 1
vn 0 0 -1
vn 0 -1 0
vn 0 1 0

# texcoords
vt 0.126953 0.5
vt 0.259766 0.5
vt 0.263672 0.5
vt 0.267578 0.5
vt 0.283203 0.5
vt 0.564453 0.5
vt 0.728516 0.5
vt 0.876953 0.5
vt 0.951172 0.5
vt 0.955078 0.5
vt 0.958984 0.5
vt 0.962891 0.5

# verts
v 0.6 2.8 -1.2
v 0.6 2.8 -1.3
v 0.6 2.8 -1.4
v 0.6 2.8 -1.5
v 0.6 2.9 -1.3
v 0.6 2.9 -1.4
v 0.6 3 -1.1
v 0.6 3 -1.2
v 0.6 3 -1.3
v 0.6 3 -1.4
v 0.6 3 -1.5
v 0.6 3 -1.6
v 0.6 3.1 -1.2
v 0.6 3.1 -1.3
v 0.6 3.1 -1.4
v 0.6 3.1 -1.5
v 0.6 3.2 -1.1
v 0.6 3.2 -1.2
v 0.6 3.2 -1.5
v 0.6 3.2 -1.6
v 0.6 3.3 -1.2
v 0.6 3.3 -1.5
v 0.7 2.9 -1.1
v 0.7 2.9 -1.2
v 0.7 2.9 -1.5
v 0.7 2.9 -1.6
v 0.7 3 -1.1
v 0.7 3 -1.2
v 0.7 3 -1.5
v 0.7 3 -1.6
v 0.7 3.1 -1
v 0.7 3.1 -1.1
v 0.7 3.1 -1.6
v 0.7 3.1 -1.7
v 0.7 3.2 -1
v 0.7 3.2 -1.1
v 0.7 3.2 -1.2
v 0.7 3.2 -1.5
v 0.7 3.2 -1.6
v 0.7 3.2 -1.7
v 0.7 3.3 -1
v 0.7 3.3 -1.1
v 0.7 3.3 -1.2
v 0.7 3.3 -1.5
v 0.7 3.3 -1.6
v 0.7 3.3 -1.7
v 0.7 3.4 -1.1
v 0.7 3.4 -1.2
v 0.7 3.4 -1.3
v 0.7 3.4 -1.4
v 0.7 3.4 -1.5
v 0.7 3.4 -1.6
v 0.7 3.5 -1.2
v 0.7 3.5 -1.3
v 0.7 3.5 -1.4
v 0.7 3.5 -1.5
v 0.7 3.6 -1.1
v 0.7 3.6 -1.2
v 0.7 3.6 -1.5
v 0.7 3.6 -1.6
v 0.8 2.9 -1
v 0.8 2.9 -1.1
v 0.8 2.9 -1.6
v 0.8 2.9 -1.7
v 0.8 3 -1
v 0.8 3 -1.1
v 0.8 3.1 -1
v 0.8 3.1 -1.1
v 0.8 3.1 -1.6
v 0.8 3.1 -1.7
v 0.8 3.3 -1
v 0.8 3.3 -1.1
v 0.8 3.3 -1.6
v 0.8 3.3 -1.7
v 0.8 3.4 -1
v 0.8 3.4 -1.1
v 0.8 3.4 -1.6
v 0.8 3.4 -1.7
v 1.1 3.5 -1.1
v 1.1 3.5 -1.2
v 1.1 3.5 -1.5
v 1.1 3.5 -1.6
v 1.1 3.6 -1.1
v 1.1 3.6 -1.2
v 1.1 3.6 -1.5
v 1.1 3.6 -1.6
v 0.7 2.8 -1.2
v 0.7 2.8 -1.3
v 0.7 2.8 -1.4
v 0.7 2.8 -1.5
v 0.7 2.9 -1.2
v 0.7 2.9 -1.3
v 0.7 2.9 -1.4
v 0.7 2.9 -1.5
v 0.8 3.5 -1.1
v 0.8 3.5 -1.2
v 0.8 3.5 -1.5
v 0.8 3.5 -1.6
v 0.8 3.6 -1.1
v 0.8 3.6 -1.2
v 0.8 3.6 -1.5
v 0.8 3.6 -1.6
v 1 2.9 -1
v 1 2.9 -1.1
v 1 2.9 -1.6
v 1 2.9 -1.7
v 1 3 -1
v 1 3 -1.1
v 1 3 -1.6
v 1 3 -1.7
v 1 3.3 -1
v 1 3.3 -1.1
v 1 3.3 -1.6
v 1 3.3 -1.7
v 1 3.4 -1
v 1 3.4 -1.1
v 1 3.4 -1.6
v 1 3.4 -1.7
v 1.1 3 -1
v 1.1 3 -1.1
v 1.1 3 -1.6
v 1.1 3 -1.7
v 1.1 3.1 -1
v 1.1 3.1 -1.1
v 1.1 3.1 -1.6
v 1.1 3.1 -1.7
v 1.1 3.2 -1
v 1.1 3.2 -1.1
v 1.1 3.2 -1.6
v 1.1 3.2 -1.7
v 1.1 3.3 -1
v 1.1 3.3 -1.1
v 1.1 3.3 -1.2
v 1.1 3.3 -1.5
v 1.1 3.3 -1.6
v 1.1 3.3 -1.7
v 1.1 3.4 -1.1
v 1.1 3.4 -1.2
v 1.1 3.4 -1.5
v 1.1 3.4 -1.6
v 1.2 2.9 -1.1
v 1.2 2.9 -1.2
v 1.2 2.9 -1.5
v 1.2 2.9 -1.6
v 1.2 3 -1.1
v 1.2 3 -1.2
v 1.2 3 -1.5
v 1.2 3 -1.6
v 1.2 3.2 -1.1
v 1.2 3.2 -1.2
v 1.2 3.2 -1.5
v 1.2 3.2 -1.6
v 1.2 3.3 -1.1
v 1.2 3.3 -1.2
v 1.2 3.3 -1.3
v 1.2 3.3 -1.4
v 1.2 3.3 -1.5
v 1.2 3.3 -1.6
v 1.2 3.4 -1.1
v 1.2 3.4 -1.2
v 1.2 3.4 -1.3
v 1.2 3.4 -1.4
v 1.2 3.4 -1.5
v 1.2 3.4 -1.6
v 1.2 3.5 -1.2
v 1.2 3.5 -1.3
v 1.2 3.5 -1.4
v 1.2 3.5 -1.5
v 1.2 3.6 -1.1
v 1.2 3.6 -1.2
v 1.2 3.6 -1.5
v 1.2 3.6 -1.6
v 0.7 3.1 -1
v 0.7 3.2 -1
v 0.7 3.3 -1
v 0.8 2.9 -1
v 0.8 3 -1
v 0.8 3.1 -1
v 0.8 3.2 -1
v 0.8 3.3 -1
v 0.8 3.4 -1
v 0.9 3 -1
v 0.9 3.1 -1
v 0.9 3.3 -1
v 0.9 3.4 -1
v 1 2.9 -1
v 1 3 -1
v 1 3.1 -1
v 1 3.2 -1
v 1 3.3 -1
v 1 3.4 -1
v 1.1 3 -1
v 1.1 3.1 -1
v 1.1 3.2 -1
v 1.1 3.3 -1
v 0.6 3 -1.1
v 0.6 3.2 -1.1
v 0.7 2.9 -1.1
v 0.7 3 -1.1
v 0.7 3.1 -1.1
v 0.7 3.2 -1.1
v 0.7 3.3 -1.1
v 0.7 3.4 -1.1
v 0.7 3.6 -1.1
v 0.8 2.9 -1.1
v 0.8 3 -1.1
v 0.8 3.1 -1.1
v 0.8 3.3 -1.1
v 0.8 3.4 -1.1
v 0.8 3.5 -1.1
v 0.8 3.6 -1.1
v 0.9 3.4 -1.1
v 0.9 3.5 -1.1
v 1 2.9 -1.1
v 1 3 -1.1
v 1 3.3 -1.1
v 1 3.4 -1.1
v 1 3.5 -1.1
v 1.1 2.9 -1.1
v 1.1 3 -1.1
v 1.1 3.1 -1.1
v 1.1 3.2 -1.1
v 1.1 3.3 -1.1
v 1.1 3.4 -1.1
v 1.1 3.5 -1.1
v 1.1 3.6 -1.1
v 1.2 2.9 -1.1
v 1.2 3 -1.1
v 1.2 3.2 -1.1
v 1.2 3.3 -1.1
v 1.2 3.4 -1.1
v 1.2 3.6 -1.1
v 0.6 2.8 -1.2
v 0.6 3 -1.2
v 0.6 3.2 -1.2
v 0.6 3.3 -1.2
v 0.7 2.8 -1.2
v 0.7 2.9 -1.2
v 0.7 3 -1.2
v 0.7 3.2 -1.2
v 0.7 3.3 -1.2
v 1.1 3.3 -1.2
v 1.1 3.4 -1.2
v 1.2 3.3 -1.2
v 1.2 3.4 -1.2
v 0.6 2.8 -1.4
v 0.6 2.9 -1.4
v 0.7 2.8 -1.4
v 0.7 2.9 -1.4
v 0.7 3.5 -1.5
v 0.7 3.6 -1.5
v 0.8 3.5 -1.5
v 0.8 3.6 -1.5
v 1.1 3.5 -1.5
v 1.1 3.6 -1.5
v 1.2 3.5 -1.5
v 1.2 3.6 -1.5
v 0.7 3.5 -1.2
v 0.7 3.6 -1.2
v 0.8 3.5 -1.2
v 0.8 3.6 -1.2
v 1.1 3.5 -1.2
v 1.1 3.6 -1.2
v 1.2 3.5 -1.2
v 1.2 3.6 -1.2
v 0.6 2.8 -1.3
v 0.6 2.9 -1.3
v 0.7 2.8 -1.3
v 0.7 2.9 -1.3
v 0.6 2.8 -1.5
v 0.6 3 -1.5
v 0.6 3.2 -1.5
v 0.6 3.3 -1.5
v 0.7 2.8 -1.5
v 0.7 2.9 -1.5
v 0.7 3 -1.5
v 0.7 3.2 -1.5
v 0.7 3.3 -1.5
v 1.1 3.3 -1.5
v 1.1 3.4 -1.5
v 1.2 3.3 -1.5
v 1.2 3.4 -1.5
v 0.6 3 -1.6
v 0.6 3.2 -1.6
v 0.7 2.9 -1.6
v 0.7 3 -1.6
v 0.7 3.1 -1.6
v 0.7 3.2 -1.6
v 0.7 3.3 -1.6
v 0.7 3.4 -1.6
v 0.7 3.6 -1.6
v 0.8 2.9 -1.6
v 0.8 3.1 -1.6
v 0.8 3.3 -1.6
v 0.8 3.4 -1.6
v 0.8 3.5 -1.6
v 0.8 3.6 -1.6
v 0.9 3.4 -1.6
v 0.9 3.5 -1.6
v 1 2.9 -1.6
v 1 3 -1.6
v 1 3.3 -1.6
v 1 3.4 -1.6
v 1 3.5 -1.6
v 1.1 2.9 -1.6
v 1.1 3 -1.6
v 1.1 3.1 -1.6
v 1.1 3.2 -1.6
v 1.1 3.3 -1.6
v 1.1 3.4 -1.6
v 1.1 3.5 -1.6
v 1.1 3.6 -1.6
v 1.2 2.9 -1.6
v 1.2 3 -1.6
v 1.2 3.2 -1.6
v 1.2 3.3 -1.6
v 1.2 3.4 -1.6
v 1.2 3.6 -1.6
v 0.7 3.1 -1.7
v 0.7 3.2 -1.7
v 0.7 3.3 -1.7
v 0.8 2.9 -1.7
v 0.8 3.1 -1.7
v 0.8 3.2 -1.7
v 0.8 3.3 -1.7
v 0.8 3.4 -1.7
v 0.9 2.9 -1.7
v 0.9 3 -1.7
v 0.9 3.3 -1.7
v 0.9 3.4 -1.7
v 1 2.9 -1.7
v 1 3 -1.7
v 1 3.1 -1.7
v 1 3.2 -1.7
v 1 3.3 -1.7
v 1 3.4 -1.7
v 1.1 3 -1.7
v 1.1 3.1 -1.7
v 1.1 3.2 -1.7
v 1.1 3.3 -1.7
v 0.6 2.8 -1.2
v 0.7 2.8 -1.2
v 0.6 2.8 -1.3
v 0.7 2.8 -1.3
v 0.6 2.8 -1.4
v 0.7 2.8 -1.4
v 0.6 2.8 -1.5
v 0.7 2.8 -1.5
v 0.8 2.9 -1
v 1 2.9 -1
v 0.7 2.9 -1.1
v 0.8 2.9 -1.1
v 1 2.9 -1.1
v 1.1 2.9 -1.1
v 1.2 2.9 -1.1
v 0.7 2.9 -1.2
v 1.1 2.9 -1.2
v 1.2 2.9 -1.2
v 0.6 2.9 -1.3
v 0.7 2.9 -1.3
v 0.8 2.9 -1.3
v 0.6 2.9 -1.4
v 0.7 2.9 -1.4
v 0.8 2.9 -1.4
v 0.7 2.9 -1.5
v 1.1 2.9 -1.5
v 1.2 2.9 -1.5
v 0.7 2.9 -1.6
v 0.8 2.9 -1.6
v 0.9 2.9 -1.6
v 1 2.9 -1.6
v 1.1 2.9 -1.6
v 1.2 2.9 -1.6
v 0.8 2.9 -1.7
v 0.9 2.9 -1.7
v 1 2.9 -1.7
v 1 3 -1
v 1.1 3 -1
v 0.6 3 -1.1
v 0.7 3 -1.1
v 1 3 -1.1
v 1.1 3 -1.1
v 0.6 3 -1.2
v 0.7 3 -1.2
v 0.6 3 -1.5
v 0.7 3 -1.5
v 0.6 3 -1.6
v 0.7 3 -1.6
v 1 3 -1.6
v 1.1 3 -1.6
v 1 3 -1.7
v 1.1 3 -1.7
v 0.7 3.1 -1
v 0.8 3.1 -1
v 0.7 3.1 -1.1
v 0.8 3.1 -1.1
v 0.7 3.1 -1.6
v 0.8 3.1 -1.6
v 0.7 3.1 -1.7
v 0.8 3.1 -1.7
v 1.1 3.4 -1.1
v 1.2 3.4 -1.1
v 1.1 3.4 -1.2
v 1.2 3.4 -1.2
v 1.1 3.4 -1.5
v 1.2 3.4 -1.5
v 1.1 3.4 -1.6
v 1.2 3.4 -1.6
v 0.6 3.2 -1.1
v 0.7 3.2 -1.1
v 0.6 3.2 -1.2
v 0.7 3.2 -1.2
v 0.6 3.2 -1.5
v 0.7 3.2 -1.5
v 0.6 3.2 -1.6
v 0.7 3.2 -1.6
v 0.7 3.3 -1
v 0.8 3.3 -1
v 1 3.3 -1
v 1.1 3.3 -1
v 0.7 3.3 -1.1
v 0.8 3.3 -1.1
v 1 3.3 -1.1
v 1.1 3.3 -1.1
v 1.2 3.3 -1.1
v 0.6 3.3 -1.2
v 0.7 3.3 -1.2
v 1.1 3.3 -1.2
v 1.2 3.3 -1.2
v 0.6 3.3 -1.5
v 0.7 3.3 -1.5
v 1.1 3.3 -1.5
v 1.2 3.3 -1.5
v 0.7 3.3 -1.6
v 0.8 3.3 -1.6
v 1 3.3 -1.6
v 1.1 3.3 -1.6
v 1.2 3.3 -1.6
v 0.7 3.3 -1.7
v 0.8 3.3 -1.7
v 1 3.3 -1.7
v 1.1 3.3 -1.7
v 0.8 3.4 -1
v 0.9 3.4 -1
v 1 3.4 -1
v 0.8 3.4 -1.1
v 0.9 3.4 -1.1
v 1 3.4 -1.1
v 0.8 3.4 -1.6
v 0.9 3.4 -1.6
v 1 3.4 -1.6
v 0.8 3.4 -1.7
v 0.9 3.4 -1.7
v 1 3.4 -1.7
v 0.8 3.5 -1.1
v 0.9 3.5 -1.1
v 1 3.5 -1.1
v 1.1 3.5 -1.1
v 0.7 3.5 -1.2
v 0.8 3.5 -1.2
v 0.9 3.5 -1.2
v 1 3.5 -1.2
v 1.1 3.5 -1.2
v 1.2 3.5 -1.2
v 0.7 3.5 -1.3
v 0.8 3.5 -1.3
v 0.9 3.5 -1.3
v 1 3.5 -1.3
v 1.1 3.5 -1.3
v 1.2 3.5 -1.3
v 0.7 3.5 -1.4
v 0.8 3.5 -1.4
v 0.9 3.5 -1.4
v 1 3.5 -1.4
v 1.1 3.5 -1.4
v 1.2 3.5 -1.4
v 0.7 3.5 -1.5
v 0.8 3.5 -1.5
v 0.9 3.5 -1.5
v 1 3.5 -1.5
v 1.1 3.5 -1.5
v 1.2 3.5 -1.5
v 0.8 3.5 -1.6
v 0.9 3.5 -1.6
v 1 3.5 -1.6
v 1.1 3.5 -1.6
v 0.7 3.6 -1.1
v 0.8 3.6 -1.1
v 1.1 3.6 -1.1
v 1.2 3.6 -1.1
v 0.7 3.6 -1.2
v 0.8 3.6 -1.2
v 1.1 3.6 -1.2
v 1.2 3.6 -1.2
v 0.7 3.6 -1.5
v 0.8 3.6 -1.5
v 1.1 3.6 -1.5
v 1.2 3.6 -1.5
v 0.7 3.6 -1.6
v 0.8 3.6 -1.6
v 1.1 3.6 -1.6
v 1.2 3.6 -1.6

# faces
f 5/12/1 2/12/1 1/12/1
f 6/12/1 4/12/1 3/12/1
f 8/12/1 5/12/1 1/12/1
f 8/12/1 6/12/1 5/12/1
f 9/12/1 6/12/1 8/12/1
f 10/12/1 4/12/1 6/12/1
f 10/12/1 6/12/1 9/12/1
f 11/12/1 4/12/1 10/12/1
f 13/8/1 9/8/1 8/8/1
f 13/12/1 8/12/1 7/12/1
f 14/12/1 10/12/1 9/12/1
f 14/8/1 9/8/1 13/8/1
f 15/8/1 11/8/1 10/8/1
f 15/12/1 10/12/1 14/12/1
f 16/12/1 12/12/1 11/12/1
f 16/8/1 11/8/1 15/8/1
f 17/12/1 15/12/1 14/12/1
f 17/12/1 14/12/1 13/12/1
f 17/12/1 16/12/1 15/12/1
f 17/12/1 13/12/1 7/12/1
f 18/12/1 16/12/1 17/12/1
f 19/12/1 12/12/1 16/12/1
f 19/12/1 16/12/1 18/12/1
f 20/12/1 12/12/1 19/12/1
f 21/12/1 19/12/1 18/12/1
f 22/12/1 19/12/1 21/12/1
f 27/12/1 24/12/1 23/12/1
f 28/12/1 24/12/1 27/12/1
f 29/12/1 26/12/1 25/12/1
f 30/12/1 26/12/1 29/12/1
f 35/11/1 32/11/1 31/11/1
f 36/11/1 32/11/1 35/11/1
f 39/11/1 34/11/1 33/11/1
f 40/11/1 34/11/1 39/11/1
f 41/9/1 36/9/1 35/9/1
f 42/11/1 37/11/1 36/11/1
f 42/9/1 36/9/1 41/9/1
f 43/11/1 37/11/1 42/11/1
f 44/11/1 39/11/1 38/11/1
f 45/9/1 40/9/1 39/9/1
f 45/11/1 39/11/1 44/11/1
f 46/9/1 40/9/1 45/9/1
f 47/9/1 43/9/1 42/9/1
f 48/11/1 44/11/1 43/11/1
f 48/9/1 43/9/1 47/9/1
f 49/11/1 44/11/1 48/11/1
f 50/11/1 44/11/1 49/11/1
f 51/9/1 45/9/1 44/9/1
f 51/11/1 44/11/1 50/11/1
f 52/9/1 45/9/1 51/9/1
f 53/2/1 48/2/1 47/2/1
f 53/3/1 49/3/1 48/3/1
f 54/4/1 50/4/1 49/4/1
f 54/3/1 49/3/1 53/3/1
f 55/3/1 51/3/1 50/3/1
f 55/4/1 50/4/1 54/4/1
f 56/2/1 52/2/1 51/2/1
f 56/3/1 51/3/1 55/3/1
f 57/2/1 53/2/1 47/2/1
f 58/2/1 53/2/1 57/2/1
f 59/2/1 52/2/1 56/2/1
f 60/2/1 52/2/1 59/2/1
f 65/11/1 62/11/1 61/11/1
f 66/11/1 62/11/1 65/11/1
f 67/9/1 66/9/1 65/9/1
f 68/9/1 66/9/1 67/9/1
f 69/11/1 64/11/1 63/11/1
f 70/11/1 64/11/1 69/11/1
f 75/10/1 72/10/1 71/10/1
f 76/10/1 72/10/1 75/10/1
f 77/11/1 74/11/1 73/11/1
f 78/11/1 74/11/1 77/11/1
f 83/2/1 80/2/1 79/2/1
f 84/2/1 80/2/1 83/2/1
f 85/2/1 82/2/1 81/2/1
f 86/2/1 82/2/1 85/2/1
f 87/12/2 88/12/2 91/12/2
f 91/12/2 88/12/2 92/12/2
f 89/12/2 90/12/2 93/12/2
f 93/12/2 90/12/2 94/12/2
f 95/2/2 96/2/2 99/2/2
f 99/2/2 96/2/2 100/2/2
f 97/2/2 98/2/2 101/2/2
f 101/2/2 98/2/2 102/2/2
f 103/11/2 104/11/2 107/11/2
f 107/11/2 104/11/2 108/11/2
f 105/9/2 106/9/2 109/9/2
f 109/9/2 106/9/2 110/9/2
f 111/11/2 112/11/2 115/11/2
f 115/11/2 112/11/2 116/11/2
f 113/10/2 114/10/2 117/10/2
f 117/10/2 114/10/2 118/10/2
f 119/11/2 120/11/2 123/11/2
f 123/11/2 120/11/2 124/11/2
f 121/11/2 122/11/2 125/11/2
f 125/11/2 122/11/2 126/11/2
f 123/10/2 124/10/2 127/10/2
f 127/10/2 124/10/2 128/10/2
f 125/10/2 126/10/2 129/10/2
f 129/10/2 126/10/2 130/10/2
f 127/9/2 128/9/2 131/9/2
f 131/9/2 128/9/2 132/9/2
f 129/11/2 130/11/2 135/11/2
f 135/11/2 130/11/2 136/11/2
f 132/10/2 133/10/2 137/10/2
f 137/10/2 133/10/2 138/10/2
f 134/11/2 135/11/2 139/11/2
f 139/11/2 135/11/2 140/11/2
f 141/10/2 142/10/2 145/10/2
f 142/11/2 143/11/2 146/11/2
f 145/10/2 142/10/2 146/10/2
f 143/10/2 144/10/2 147/10/2
f 146/11/2 143/11/2 147/11/2
f 147/10/2 144/10/2 148/10/2
f 145/11/2 146/11/2 149/11/2
f 146/11/2 147/11/2 149/11/2
f 147/11/2 148/11/2 149/11/2
f 149/11/2 148/11/2 150/11/2
f 150/11/2 148/11/2 151/11/2
f 151/11/2 148/11/2 152/11/2
f 149/10/2 150/10/2 153/10/2
f 150/11/2 151/11/2 154/11/2
f 153/10/2 150/10/2 154/10/2
f 154/11/2 151/11/2 155/11/2
f 155/11/2 151/11/2 156/11/2
f 151/10/2 152/10/2 157/10/2
f 156/11/2 151/11/2 157/11/2
f 157/10/2 152/10/2 158/10/2
f 154/10/2 155/10/2 160/10/2
f 155/11/2 156/11/2 161/11/2
f 160/10/2 155/10/2 161/10/2
f 156/10/2 157/10/2 162/10/2
f 161/11/2 156/11/2 162/11/2
f 162/10/2 157/10/2 163/10/2
f 159/2/2 160/2/2 165/2/2
f 160/3/2 161/3/2 165/3/2
f 161/4/2 162/4/2 166/4/2
f 165/3/2 161/3/2 166/3/2
f 162/3/2 163/3/2 167/3/2
f 166/4/2 162/4/2 167/4/2
f 163/2/2 164/2/2 168/2/2
f 167/3/2 163/3/2 168/3/2
f 159/2/2 165/2/2 169/2/2
f 169/2/2 165/2/2 170/2/2
f 168/2/2 164/2/2 171/2/2
f 171/2/2 164/2/2 172/2/2
f 178/11/3 174/11/3 173/11/3
f 179/9/3 175/9/3 174/9/3
f 179/11/3 174/11/3 178/11/3
f 180/9/3 175/9/3 179/9/3
f 182/11/3 177/11/3 176/11/3
f 182/9/3 178/9/3 177/9/3
f 183/11/3 180/11/3 179/11/3
f 183/9/3 178/9/3 182/9/3
f 183/11/3 179/11/3 178/11/3
f 184/10/3 181/10/3 180/10/3
f 184/11/3 180/11/3 183/11/3
f 185/10/3 181/10/3 184/10/3
f 186/11/3 183/11/3 182/11/3
f 186/11/3 182/11/3 176/11/3
f 186/11/3 185/11/3 184/11/3
f 186/11/3 184/11/3 183/11/3
f 187/11/3 185/11/3 186/11/3
f 188/11/3 185/11/3 187/11/3
f 189/11/3 185/11/3 188/11/3
f 190/11/3 185/11/3 189/11/3
f 191/11/3 185/11/3 190/11/3
f 192/11/3 188/11/3 187/11/3
f 193/10/3 189/10/3 188/10/3
f 193/11/3 188/11/3 192/11/3
f 194/9/3 190/9/3 189/9/3
f 194/10/3 189/10/3 193/10/3
f 195/9/3 190/9/3 194/9/3
f 199/12/3 197/12/3 196/12/3
f 200/12/3 197/12/3 199/12/3
f 201/12/3 197/12/3 200/12/3
f 205/12/3 199/12/3 198/12/3
f 205/12/3 200/12/3 199/12/3
f 206/12/3 200/12/3 205/12/3
f 207/12/3 200/12/3 206/12/3
f 208/9/3 203/9/3 202/9/3
f 209/2/3 204/2/3 203/2/3
f 209/9/3 203/9/3 208/9/3
f 210/2/3 204/2/3 209/2/3
f 211/2/3 204/2/3 210/2/3
f 212/3/3 210/3/3 209/3/3
f 213/3/3 210/3/3 212/3/3
f 217/4/3 213/4/3 212/4/3
f 218/4/3 213/4/3 217/4/3
f 219/11/3 215/11/3 214/11/3
f 220/11/3 215/11/3 219/11/3
f 223/10/3 217/10/3 216/10/3
f 224/3/3 218/3/3 217/3/3
f 224/10/3 217/10/3 223/10/3
f 225/3/3 218/3/3 224/3/3
f 227/10/3 220/10/3 219/10/3
f 228/11/3 222/11/3 221/11/3
f 228/10/3 220/10/3 227/10/3
f 228/11/3 221/11/3 220/11/3
f 229/10/3 223/10/3 222/10/3
f 229/11/3 222/11/3 228/11/3
f 230/10/3 223/10/3 229/10/3
f 231/2/3 225/2/3 224/2/3
f 231/2/3 226/2/3 225/2/3
f 232/2/3 226/2/3 231/2/3
f 237/12/3 234/12/3 233/12/3
f 238/12/3 234/12/3 237/12/3
f 239/12/3 234/12/3 238/12/3
f 240/12/3 236/12/3 235/12/3
f 241/12/3 236/12/3 240/12/3
f 244/10/3 243/10/3 242/10/3
f 245/10/3 243/10/3 244/10/3
f 248/12/3 247/12/3 246/12/3
f 249/12/3 247/12/3 248/12/3
f 252/2/3 251/2/3 250/2/3
f 253/2/3 251/2/3 252/2/3
f 256/2/3 255/2/3 254/2/3
f 257/2/3 255/2/3 256/2/3
f 258/2/4 259/2/4 260/2/4
f 260/2/4 259/2/4 261/2/4
f 262/2/4 263/2/4 264/2/4
f 264/2/4 263/2/4 265/2/4
f 266/12/4 267/12/4 268/12/4
f 268/12/4 267/12/4 269/12/4
f 270/12/4 271/12/4 274/12/4
f 274/12/4 271/12/4 275/12/4
f 275/12/4 271/12/4 276/12/4
f 272/12/4 273/12/4 277/12/4
f 277/12/4 273/12/4 278/12/4
f 279/10/4 280/10/4 281/10/4
f 281/10/4 280/10/4 282/10/4
f 283/12/4 284/12/4 286/12/4
f 286/12/4 284/12/4 287/12/4
f 287/12/4 284/12/4 288/12/4
f 285/12/4 286/12/4 292/12/4
f 286/12/4 287/12/4 292/12/4
f 292/12/4 287/12/4 293/12/4
f 289/9/4 290/9/4 294/9/4
f 290/2/4 291/2/4 295/2/4
f 294/9/4 290/9/4 295/9/4
f 295/2/4 291/2/4 296/2/4
f 296/2/4 291/2/4 297/2/4
f 295/3/4 296/3/4 298/3/4
f 298/3/4 296/3/4 299/3/4
f 298/4/4 299/4/4 303/4/4
f 303/4/4 299/4/4 304/4/4
f 300/11/4 301/11/4 305/11/4
f 305/11/4 301/11/4 306/11/4
f 302/11/4 303/11/4 309/11/4
f 303/3/4 304/3/4 310/3/4
f 309/11/4 303/11/4 310/11/4
f 310/3/4 304/3/4 311/3/4
f 305/10/4 306/10/4 313/10/4
f 307/11/4 308/11/4 314/11/4
f 313/10/4 306/10/4 314/10/4
f 306/11/4 307/11/4 314/11/4
f 308/10/4 309/10/4 315/10/4
f 314/11/4 308/11/4 315/11/4
f 315/10/4 309/10/4 316/10/4
f 310/2/4 311/2/4 317/2/4
f 311/2/4 312/2/4 317/2/4
f 317/2/4 312/2/4 318/2/4
f 319/11/4 320/11/4 323/11/4
f 320/9/4 321/9/4 324/9/4
f 323/11/4 320/11/4 324/11/4
f 324/9/4 321/9/4 325/9/4
f 322/11/4 323/11/4 327/11/4
f 325/11/4 326/11/4 327/11/4
f 324/11/4 325/11/4 327/11/4
f 323/11/4 324/11/4 327/11/4
f 327/11/4 326/11/4 328/11/4
f 328/11/4 326/11/4 329/11/4
f 329/11/4 326/11/4 330/11/4
f 327/9/4 328/9/4 331/9/4
f 328/11/4 329/11/4 332/11/4
f 331/9/4 328/9/4 332/9/4
f 332/11/4 329/11/4 333/11/4
f 333/11/4 329/11/4 334/11/4
f 329/10/4 330/10/4 335/10/4
f 334/11/4 329/11/4 335/11/4
f 335/10/4 330/10/4 336/10/4
f 332/11/4 333/11/4 337/11/4
f 333/10/4 334/10/4 338/10/4
f 337/11/4 333/11/4 338/11/4
f 334/11/4 335/11/4 339/11/4
f 338/10/4 334/10/4 339/10/4
f 339/11/4 335/11/4 340/11/4
f 343/12/5 342/12/5 341/12/5
f 344/12/5 342/12/5 343/12/5
f 347/12/5 346/12/5 345/12/5
f 348/12/5 346/12/5 347/12/5
f 352/11/5 350/11/5 349/11/5
f 353/11/5 350/11/5 352/11/5
f 356/12/5 352/12/5 351/12/5
f 357/10/5 355/10/5 354/10/5
f 357/11/5 353/11/5 352/11/5
f 357/11/5 354/11/5 353/11/5
f 358/10/5 355/10/5 357/10/5
f 360/12/5 352/12/5 356/12/5
f 361/11/5 357/11/5 352/11/5
f 361/11/5 358/11/5 357/11/5
f 361/12/5 352/12/5 360/12/5
f 362/12/5 360/12/5 359/12/5
f 363/11/5 361/11/5 360/11/5
f 363/12/5 360/12/5 362/12/5
f 364/11/5 358/11/5 361/11/5
f 364/11/5 361/11/5 363/11/5
f 365/12/5 364/12/5 363/12/5
f 366/11/5 358/11/5 364/11/5
f 367/11/5 358/11/5 366/11/5
f 368/12/5 364/12/5 365/12/5
f 369/11/5 366/11/5 364/11/5
f 369/12/5 364/12/5 368/12/5
f 370/11/5 366/11/5 369/11/5
f 371/11/5 366/11/5 370/11/5
f 372/10/5 367/10/5 366/10/5
f 372/11/5 366/11/5 371/11/5
f 373/10/5 367/10/5 372/10/5
f 374/11/5 370/11/5 369/11/5
f 375/9/5 371/9/5 370/9/5
f 375/11/5 370/11/5 374/11/5
f 376/9/5 371/9/5 375/9/5
f 381/11/5 378/11/5 377/11/5
f 382/11/5 378/11/5 381/11/5
f 383/12/5 380/12/5 379/12/5
f 384/12/5 380/12/5 383/12/5
f 387/12/5 386/12/5 385/12/5
f 388/12/5 386/12/5 387/12/5
f 391/11/5 390/11/5 389/11/5
f 392/11/5 390/11/5 391/11/5
f 395/11/5 394/11/5 393/11/5
f 396/11/5 394/11/5 395/11/5
f 399/11/5 398/11/5 397/11/5
f 400/11/5 398/11/5 399/11/5
f 403/2/5 402/2/5 401/2/5
f 404/2/5 402/2/5 403/2/5
f 407/2/5 406/2/5 405/2/5
f 408/2/5 406/2/5 407/2/5
f 409/12/6 410/12/6 411/12/6
f 411/12/6 410/12/6 412/12/6
f 413/12/6 414/12/6 415/12/6
f 415/12/6 414/12/6 416/12/6
f 417/9/6 418/9/6 421/9/6
f 421/9/6 418/9/6 422/9/6
f 419/9/6 420/9/6 423/9/6
f 423/9/6 420/9/6 424/9/6
f 424/10/6 425/10/6 428/10/6
f 428/10/6 425/10/6 429/10/6
f 426/12/6 427/12/6 430/12/6
f 430/12/6 427/12/6 431/12/6
f 432/10/6 433/10/6 437/10/6
f 437/10/6 433/10/6 438/10/6
f 434/9/6 435/9/6 439/9/6
f 439/9/6 435/9/6 440/9/6
f 436/11/6 437/11/6 441/11/6
f 441/11/6 437/11/6 442/11/6
f 443/10/6 444/10/6 446/10/6
f 444/11/6 445/11/6 447/11/6
f 446/10/6 444/10/6 447/10/6
f 447/11/6 445/11/6 448/11/6
f 449/11/6 450/11/6 452/11/6
f 450/10/6 451/10/6 453/10/6
f 452/11/6 450/11/6 453/11/6
f 453/10/6 451/10/6 454/10/6
f 455/3/6 456/3/6 460/3/6
f 456/4/6 457/4/6 461/4/6
f 460/3/6 456/3/6 461/3/6
f 457/3/6 458/3/6 462/3/6
f 461/4/6 457/4/6 462/4/6
f 462/3/6 458/3/6 463/3/6
f 459/3/6 460/3/6 465/3/6
f 460/7/6 461/7/6 466/7/6
f 465/3/6 460/3/6 466/3/6
f 461/5/6 462/5/6 467/5/6
f 466/7/6 461/7/6 467/7/6
f 462/1/6 463/1/6 468/1/6
f 467/5/6 462/5/6 468/5/6
f 463/3/6 464/3/6 469/3/6
f 468/1/6 463/1/6 469/1/6
f 469/3/6 464/3/6 470/3/6
f 465/4/6 466/4/6 471/4/6
f 466/5/6 467/5/6 472/5/6
f 471/4/6 466/4/6 472/4/6
f 467/6/6 468/6/6 473/6/6
f 472/5/6 467/5/6 473/5/6
f 468/5/6 469/5/6 474/5/6
f 473/6/6 468/6/6 474/6/6
f 469/4/6 470/4/6 475/4/6
f 474/5/6 469/5/6 475/5/6
f 475/4/6 470/4/6 476/4/6
f 471/3/6 472/3/6 477/3/6
f 472/1/6 473/1/6 478/1/6
f 477/3/6 472/3/6 478/3/6
f 473/5/6 474/5/6 479/5/6
f 478/1/6 473/1/6 479/1/6
f 474/1/6 475/1/6 480/1/6
f 479/5/6 474/5/6 480/5/6
f 475/3/6 476/3/6 481/3/6
f 480/1/6 475/1/6 481/1/6
f 481/3/6 476/3/6 482/3/6
f 478/3/6 479/3/6 483/3/6
f 479/4/6 480/4/6 484/4/6
f 483/3/6 479/3/6 484/3/6
f 480/3/6 481/3/6 485/3/6
f 484/4/6 480/4/6 485/4/6
f 485/3/6 481/3/6 486/3/6
f 487/2/6 488/2/6 491/2/6
f 491/2/6 488/2/6 492/2/6
f 489/2/6 490/2/6 493/2/6
f 493/2/6 490/2/6 494/2/6
f 495/2/6 496/2/6 499/2/6
f 499/2/6 496/2/6 500/2/6
f 497/2/6 498/2/6 501/2/6
f 501/2/6 498/2/6 502/2/6
