# MagicaVoxel @ Ephtracy

# group
o 

# material
mtllib tronco.mtl
usemtl palette

# normals
vn -1 0 0
vn 1 0 0
vn 0 0 1
vn 0 0 -1
vn 0 -1 0
vn 0 1 0

# texcoords
vt 0.951172 0.5
vt 0.955078 0.5
vt 0.958984 0.5

# verts
v 0.8 2.4 -1.1
v 0.8 2.4 -1.2
v 0.8 2.4 -1.5
v 0.8 2.4 -1.6
v 0.8 2.5 -1.1
v 0.8 2.5 -1.2
v 0.8 2.5 -1.3
v 0.8 2.5 -1.4
v 0.8 2.5 -1.5
v 0.8 2.5 -1.6
v 0.8 2.6 -1.2
v 0.8 2.6 -1.3
v 0.8 2.6 -1.4
v 0.8 2.6 -1.5
v 0.8 2.9 -1.1
v 0.8 2.9 -1.2
v 0.8 2.9 -1.5
v 0.8 2.9 -1.6
v 1.1 2.4 -1.1
v 1.1 2.4 -1.3
v 1.1 2.4 -1.4
v 1.1 2.4 -1.6
v 1.1 2.5 -1.1
v 1.1 2.5 -1.3
v 1.1 2.5 -1.4
v 1.1 2.5 -1.5
v 1.1 2.6 -1.2
v 1.1 2.6 -1.5
v 1.1 2.6 -1.6
v 1.1 2.9 -1.1
v 1.1 2.9 -1.2
v 1.1 2.9 -1.5
v 1.1 2.9 -1.6
v 0.8 2.4 -1.1
v 0.8 2.5 -1.1
v 0.8 2.9 -1.1
v 0.9 2.4 -1.1
v 0.9 2.5 -1.1
v 0.9 2.9 -1.1
v 1 2.4 -1.1
v 1 2.5 -1.1
v 1 2.9 -1.1
v 1.1 2.4 -1.1
v 1.1 2.5 -1.1
v 1.1 2.9 -1.1
v 0.8 2.4 -1.6
v 0.8 2.5 -1.6
v 0.8 2.9 -1.6
v 0.9 2.4 -1.6
v 0.9 2.5 -1.6
v 0.9 2.9 -1.6
v 1 2.4 -1.6
v 1 2.5 -1.6
v 1 2.6 -1.6
v 1 2.9 -1.6
v 1.1 2.4 -1.6
v 1.1 2.6 -1.6
v 1.1 2.9 -1.6
v 0.8 2.4 -1.1
v 0.9 2.4 -1.1
v 1 2.4 -1.1
v 1.1 2.4 -1.1
v 0.8 2.4 -1.2
v 0.9 2.4 -1.2
v 1 2.4 -1.2
v 1 2.4 -1.3
v 1.1 2.4 -1.3
v 1 2.4 -1.4
v 1.1 2.4 -1.4
v 0.8 2.4 -1.5
v 0.9 2.4 -1.5
v 1 2.4 -1.5
v 0.8 2.4 -1.6
v 0.9 2.4 -1.6
v 1 2.4 -1.6
v 1.1 2.4 -1.6
v 0.8 2.9 -1.1
v 0.9 2.9 -1.1
v 1 2.9 -1.1
v 1.1 2.9 -1.1
v 0.8 2.9 -1.2
v 0.9 2.9 -1.2
v 1 2.9 -1.2
v 1.1 2.9 -1.2
v 0.8 2.9 -1.5
v 0.9 2.9 -1.5
v 1 2.9 -1.5
v 1.1 2.9 -1.5
v 0.8 2.9 -1.6
v 0.9 2.9 -1.6
v 1 2.9 -1.6
v 1.1 2.9 -1.6

# faces
f 5/1/1 2/1/1 1/1/1
f 6/2/1 3/2/1 2/2/1
f 6/1/1 2/1/1 5/1/1
f 7/2/1 3/2/1 6/2/1
f 8/2/1 3/2/1 7/2/1
f 9/1/1 4/1/1 3/1/1
f 9/2/1 3/2/1 8/2/1
f 10/1/1 4/1/1 9/1/1
f 11/2/1 6/2/1 5/2/1
f 11/2/1 7/2/1 6/2/1
f 12/3/1 8/3/1 7/3/1
f 12/2/1 7/2/1 11/2/1
f 13/2/1 10/2/1 9/2/1
f 13/3/1 8/3/1 12/3/1
f 13/2/1 9/2/1 8/2/1
f 14/2/1 10/2/1 13/2/1
f 15/2/1 11/2/1 5/2/1
f 16/3/1 12/3/1 11/3/1
f 16/2/1 11/2/1 15/2/1
f 16/3/1 13/3/1 12/3/1
f 16/3/1 14/3/1 13/3/1
f 17/2/1 10/2/1 14/2/1
f 17/3/1 14/3/1 16/3/1
f 18/2/1 10/2/1 17/2/1
f 19/1/2 20/1/2 23/1/2
f 20/2/2 21/2/2 24/2/2
f 23/1/2 20/1/2 24/1/2
f 21/1/2 22/1/2 25/1/2
f 24/2/2 21/2/2 25/2/2
f 25/1/2 22/1/2 26/1/2
f 23/2/2 24/2/2 27/2/2
f 24/2/2 25/2/2 27/2/2
f 25/2/2 26/2/2 27/2/2
f 26/1/2 22/1/2 28/1/2
f 27/2/2 26/2/2 28/2/2
f 28/1/2 22/1/2 29/1/2
f 23/2/2 27/2/2 30/2/2
f 27/3/2 28/3/2 31/3/2
f 30/2/2 27/2/2 31/2/2
f 28/2/2 29/2/2 32/2/2
f 31/3/2 28/3/2 32/3/2
f 32/2/2 29/2/2 33/2/2
f 37/1/3 35/1/3 34/1/3
f 38/2/3 36/2/3 35/2/3
f 38/1/3 35/1/3 37/1/3
f 39/2/3 36/2/3 38/2/3
f 40/2/3 38/2/3 37/2/3
f 41/3/3 39/3/3 38/3/3
f 41/2/3 38/2/3 40/2/3
f 42/3/3 39/3/3 41/3/3
f 43/1/3 41/1/3 40/1/3
f 44/2/3 42/2/3 41/2/3
f 44/1/3 41/1/3 43/1/3
f 45/2/3 42/2/3 44/2/3
f 46/1/4 47/1/4 49/1/4
f 47/2/4 48/2/4 50/2/4
f 49/1/4 47/1/4 50/1/4
f 50/2/4 48/2/4 51/2/4
f 49/2/4 50/2/4 52/2/4
f 50/3/4 51/3/4 53/3/4
f 52/2/4 50/2/4 53/2/4
f 53/3/4 51/3/4 54/3/4
f 54/3/4 51/3/4 55/3/4
f 52/1/4 53/1/4 56/1/4
f 53/1/4 54/1/4 56/1/4
f 54/2/4 55/2/4 57/2/4
f 56/1/4 54/1/4 57/1/4
f 57/2/4 55/2/4 58/2/4
f 63/1/5 60/1/5 59/1/5
f 64/2/5 61/2/5 60/2/5
f 64/1/5 60/1/5 63/1/5
f 65/1/5 62/1/5 61/1/5
f 65/2/5 61/2/5 64/2/5
f 66/3/5 65/3/5 64/3/5
f 66/1/5 62/1/5 65/1/5
f 67/1/5 62/1/5 66/1/5
f 68/3/5 66/3/5 64/3/5
f 68/2/5 67/2/5 66/2/5
f 69/2/5 67/2/5 68/2/5
f 70/2/5 64/2/5 63/2/5
f 71/3/5 68/3/5 64/3/5
f 71/2/5 64/2/5 70/2/5
f 72/1/5 69/1/5 68/1/5
f 72/3/5 68/3/5 71/3/5
f 73/1/5 71/1/5 70/1/5
f 74/2/5 72/2/5 71/2/5
f 74/1/5 71/1/5 73/1/5
f 75/1/5 69/1/5 72/1/5
f 75/2/5 72/2/5 74/2/5
f 76/1/5 69/1/5 75/1/5
f 77/2/6 78/2/6 81/2/6
f 78/3/6 79/3/6 82/3/6
f 81/2/6 78/2/6 82/2/6
f 79/2/6 80/2/6 83/2/6
f 82/3/6 79/3/6 83/3/6
f 83/2/6 80/2/6 84/2/6
f 81/3/6 82/3/6 85/3/6
f 82/3/6 83/3/6 85/3/6
f 83/3/6 84/3/6 85/3/6
f 85/3/6 84/3/6 86/3/6
f 86/3/6 84/3/6 87/3/6
f 87/3/6 84/3/6 88/3/6
f 85/2/6 86/2/6 89/2/6
f 86/3/6 87/3/6 90/3/6
f 89/2/6 86/2/6 90/2/6
f 87/2/6 88/2/6 91/2/6
f 90/3/6 87/3/6 91/3/6
f 91/2/6 88/2/6 92/2/6
